<svg width="293" height="257" viewBox="0 0 293 257" fill="none" xmlns="http://www.w3.org/2000/svg">
<path d="M148.025 60.9179C154.683 60.9179 160.843 59.6059 167.094 58.9952C177.694 58.0881 188.369 58.6719 198.807 60.7294C212.952 63.4061 229.276 69.5813 242.713 82.8517C253.698 93.6943 260.386 107.115 263.825 119.466C267.367 132.031 268.093 145.223 265.951 158.101C264.33 167.579 261.156 176.265 255.908 182.983C232.36 210.504 139.988 201.147 116.274 191.571C40.799 167.835 -1.76428 65.472 11.393 24.0171C16.0452 9.35936 28.9235 -0.223981 47.1251 2.06818C61.6471 3.89286 78.7931 13.152 92.7722 25.872C107.045 38.8709 118.83 54.2601 135.818 59.2214C139.784 60.3753 143.896 60.9468 148.025 60.9179Z" fill="#5EC401"/>
<path opacity="0.9" d="M148.025 60.9179C154.683 60.9179 160.843 59.6059 167.094 58.9952C177.694 58.0881 188.369 58.6719 198.807 60.7294C212.952 63.4061 229.276 69.5813 242.713 82.8517C253.698 93.6943 260.386 107.115 263.825 119.466C267.367 132.031 268.093 145.223 265.951 158.101C264.33 167.579 261.156 176.265 255.908 182.983C232.36 210.504 139.988 201.147 116.274 191.571C40.799 167.835 -1.76428 65.472 11.393 24.0171C16.0452 9.35936 28.9235 -0.223981 47.1251 2.06818C61.6471 3.89286 78.7931 13.152 92.7722 25.872C107.045 38.8709 118.83 54.2601 135.818 59.2214C139.784 60.3753 143.896 60.9468 148.025 60.9179Z" fill="white"/>
<path d="M146.193 256.717C226.933 256.717 292.386 252.895 292.386 248.181C292.386 243.467 226.933 239.646 146.193 239.646C65.4529 239.646 0 243.467 0 248.181C0 252.895 65.4529 256.717 146.193 256.717Z" fill="#F5F5F5"/>
<path d="M77.4884 242.376C78.0603 242.659 78.7207 242.708 79.3281 242.511C79.4164 242.441 79.481 242.346 79.5134 242.238C79.5458 242.13 79.5442 242.015 79.5091 241.908C79.4662 241.716 79.3498 241.548 79.1849 241.441C78.3102 240.86 75.9201 241.327 75.822 241.35C75.793 241.356 75.7666 241.371 75.7463 241.392C75.7261 241.414 75.713 241.441 75.7089 241.471C75.7058 241.499 75.7105 241.527 75.7225 241.552C75.7345 241.577 75.7533 241.599 75.7768 241.614C76.3234 241.919 76.8962 242.173 77.4884 242.376ZM78.7702 241.561C78.8603 241.591 78.9464 241.631 79.0265 241.682C79.0776 241.712 79.122 241.752 79.157 241.8C79.192 241.848 79.2169 241.903 79.2301 241.961C79.2678 242.164 79.2301 242.24 79.1547 242.277C78.7626 242.556 77.3074 242.074 76.2895 241.523C77.1112 241.378 77.9533 241.39 78.7702 241.561Z" fill="#5EC401"/>
<path d="M75.8073 241.629H75.8676C76.6593 241.546 78.4463 240.762 78.5594 240.076C78.5594 239.918 78.5594 239.691 78.1749 239.525C78.0438 239.469 77.9027 239.441 77.7602 239.441C77.6176 239.441 77.4766 239.469 77.3455 239.525C76.4105 239.887 75.747 241.388 75.7168 241.448C75.7056 241.47 75.6997 241.495 75.6997 241.52C75.6997 241.545 75.7056 241.569 75.7168 241.591C75.7427 241.612 75.7742 241.625 75.8073 241.629ZM77.9788 239.767H78.0618C78.2955 239.872 78.2804 239.978 78.2729 240.008C78.205 240.423 76.9534 241.086 76.1014 241.275C76.3833 240.646 76.8519 240.12 77.4435 239.767C77.6159 239.701 77.8064 239.701 77.9788 239.767Z" fill="#5EC401"/>
<path d="M75.1584 241.275H68.5308C68.4145 241.27 68.301 241.311 68.2139 241.388C68.1269 241.466 68.0729 241.573 68.0633 241.689L67.5355 247.088C67.5273 247.226 67.5473 247.364 67.5943 247.494C67.6413 247.624 67.7143 247.743 67.8088 247.844C67.9034 247.945 68.0175 248.026 68.1442 248.081C68.2709 248.137 68.4076 248.165 68.5459 248.166C70.936 248.129 74.3743 247.985 77.3752 247.985C80.8888 247.985 81.1452 248.181 85.2696 248.181C87.7578 248.181 88.1348 245.663 87.0641 245.429C82.1857 244.389 81.0999 244.283 76.6815 241.75C76.2223 241.465 75.6982 241.301 75.1584 241.275Z" fill="#263238"/>
<path d="M45.0818 242.722C45.733 242.798 46.3894 242.634 46.9291 242.262C47.0045 242.179 47.0528 242.074 47.0676 241.962C47.0824 241.851 47.063 241.737 47.0121 241.637C46.9745 241.553 46.9183 241.479 46.8477 241.42C46.7772 241.361 46.6941 241.319 46.6049 241.297C45.6322 241.026 43.3401 242.232 43.2421 242.285C43.2146 242.298 43.191 242.318 43.1738 242.344C43.1566 242.369 43.1464 242.398 43.144 242.428C43.1449 242.456 43.155 242.483 43.1727 242.505C43.1904 242.527 43.2148 242.542 43.2421 242.549C43.849 242.661 44.4646 242.719 45.0818 242.722ZM46.2128 241.546C46.3054 241.534 46.3992 241.534 46.4918 241.546C46.5471 241.556 46.599 241.58 46.6425 241.616C46.686 241.651 46.7198 241.697 46.7406 241.75C46.816 241.923 46.7406 242.014 46.7406 242.066C46.4013 242.458 44.8632 242.466 43.7246 242.308C44.5041 241.916 45.3462 241.663 46.2128 241.561V241.546Z" fill="#5EC401"/>
<path d="M43.2719 242.564H43.3322C44.0862 242.232 45.7601 240.92 45.745 240.234C45.745 240.076 45.6621 239.872 45.27 239.835C44.9731 239.808 44.6771 239.894 44.4406 240.076C43.7977 240.72 43.3506 241.533 43.1512 242.421C43.1392 242.44 43.1328 242.462 43.1328 242.485C43.1328 242.508 43.1392 242.53 43.1512 242.549C43.1692 242.56 43.1892 242.567 43.21 242.569C43.2307 242.572 43.2518 242.57 43.2719 242.564ZM45.1117 240.106H45.2021C45.4509 240.106 45.4585 240.234 45.4585 240.264C45.4585 240.679 44.3275 241.712 43.5132 242.157C43.6907 241.447 44.0612 240.799 44.5838 240.287C44.735 240.17 44.9206 240.107 45.1117 240.106Z" fill="#5EC401"/>
<path d="M41.3041 241.275H34.6764C34.555 241.276 34.4374 241.317 34.342 241.392C34.2465 241.467 34.1785 241.572 34.1486 241.689L32.7914 247.088C32.756 247.216 32.7512 247.351 32.7773 247.482C32.8035 247.612 32.8599 247.735 32.942 247.84C33.0241 247.945 33.1296 248.029 33.2501 248.086C33.3707 248.142 33.5028 248.17 33.6359 248.166C36.0261 248.129 39.4869 247.985 42.4954 247.985C46.009 247.985 44.6217 248.181 48.746 248.181C51.2342 248.181 52.0033 245.663 50.9628 245.429C46.2428 244.389 46.7856 244.283 42.7593 241.75C42.3276 241.459 41.8238 241.295 41.3041 241.275Z" fill="#263238"/>
<path d="M70.6724 87.5492C70.6724 87.5492 63.63 134.184 60.8704 151.496C58.3445 167.526 47.9996 219.906 44.6292 236.095C44.403 237.203 44.3427 238.229 43.747 239.111C44.5463 240.136 43.9129 242.293 43.9129 242.293L33.3569 243.363C33.024 242.943 32.7846 242.457 32.6546 241.937C32.5245 241.417 32.5069 240.875 32.6029 240.347C32.7085 239.593 33.7038 238.168 33.9073 235.695C35.257 219.363 41.2588 174.621 42.7819 152.898C44.2145 132.503 49.7338 87.5567 49.7338 87.5567L70.6724 87.5492Z" fill="#5EC401"/>
<path opacity="0.3" d="M64.6705 110.772C57.6357 115.802 59.4906 137.11 60.6743 152.913C60.7497 152.416 60.8327 151.941 60.9005 151.488C62.4085 142.041 65.1606 123.824 67.3774 109.264C67.023 109.129 65.0325 110.516 64.6705 110.772Z" fill="black"/>
<path d="M82.1934 87.5492C82.1934 87.5492 81.741 132.94 81.2207 151.458C80.7533 167.828 80.708 221.294 77.3678 236.517C77.0285 238.07 77.8202 238.379 77.6694 238.998C77.618 239.212 77.5777 239.428 77.5488 239.646C77.4914 240.06 77.3079 240.447 77.0233 240.753C76.7387 241.059 76.3667 241.27 75.9578 241.358L68.2218 243.107C67.8933 243.181 67.5489 243.126 67.2597 242.954C66.9706 242.781 66.7589 242.504 66.6685 242.179C66.4305 241.17 66.3341 240.132 66.382 239.096C66.382 238.251 66.7816 236.479 66.7289 235.461C65.711 216.34 63.17 167.978 62.695 152.921C62.0465 132.307 60.8477 87.5492 60.8477 87.5492H82.1934Z" fill="#5EC401"/>
<path d="M53.0515 43.9981C51.9507 46.0339 50.7895 48.1903 49.7189 50.3015C48.6482 52.4127 47.5473 54.5692 46.5144 56.7105C46.0016 57.7812 45.4965 58.8519 45.0064 59.9301C44.5163 61.0083 44.0412 62.079 43.5888 63.1497C42.7094 65.2455 41.9368 67.3846 41.2741 69.5587L37.7755 64.4617C38.4405 64.6242 39.1156 64.7426 39.7962 64.816C40.4909 64.8805 41.1901 64.8805 41.8848 64.816C42.6158 64.7725 43.3407 64.6563 44.0488 64.4692C44.4107 64.3787 44.8028 64.2732 45.1421 64.1525C45.3155 64.0922 45.504 64.0319 45.6699 63.964L45.9338 63.8735L46.0469 63.8283C46.0469 63.8283 46.1298 63.8283 46.1223 63.8283C46.5412 63.3924 47.1162 63.1407 47.7207 63.1287C48.3252 63.1167 48.9097 63.3453 49.3456 63.7642C49.7816 64.1832 50.0332 64.7581 50.0453 65.3626C50.0573 65.9671 49.8287 66.5516 49.4097 66.9876L49.0855 67.4249C48.9875 67.5531 48.897 67.6812 48.799 67.7943C48.6029 68.0281 48.4069 68.2392 48.2033 68.4654C46.9593 69.7534 45.4697 70.7789 43.8226 71.4814C42.7055 71.9622 41.5327 72.3016 40.3316 72.4918C39.1284 72.69 37.9069 72.7532 36.6897 72.6803C36.1842 72.657 35.6883 72.5345 35.2302 72.3195C34.772 72.1046 34.3608 71.8016 34.0198 71.4277C33.6788 71.0538 33.4148 70.6164 33.2429 70.1404C33.0709 69.6645 32.9945 69.1594 33.0178 68.6539C33.0296 68.4485 33.0573 68.2443 33.1007 68.0432L33.1987 67.5908C33.7659 65.0152 34.4988 62.479 35.3929 59.998C36.2373 57.5626 37.2025 55.2176 38.2128 52.8953C39.2232 50.573 40.3089 48.311 41.4324 46.1093C42.5559 43.9076 43.6944 41.6833 45.0441 39.4439C45.3411 38.9172 45.739 38.4541 46.215 38.0811C46.6911 37.7081 47.2359 37.4325 47.8184 37.2701C48.4009 37.1076 49.0098 37.0615 49.6101 37.1344C50.2105 37.2072 50.7906 37.3976 51.3173 37.6947C51.8441 37.9917 52.3072 38.3896 52.6802 38.8656C53.0532 39.3416 53.3288 39.8865 53.4912 40.469C53.6537 41.0515 53.6998 41.6603 53.6269 42.2607C53.5541 42.861 53.3637 43.4412 53.0666 43.9679L53.0515 43.9981Z" fill="#FFC3BD"/>
<path d="M45.2173 64.4165L48.7762 61.6644L51.7922 67.9829C51.7922 67.9829 48.8591 69.7849 46.1221 68.7369L45.2173 64.4165Z" fill="#FFC3BD"/>
<path d="M53.9865 58.1432L55.5096 64.1677L51.7697 67.9829L48.7764 61.6644L53.9865 58.1432Z" fill="#FFC3BD"/>
<path d="M75.9126 14.3358C75.9126 14.8259 76.1011 15.2481 76.4178 15.2783C76.7345 15.3085 77.0285 14.9315 77.0662 14.4414C77.1039 13.9513 76.8853 13.5366 76.561 13.5064C76.2368 13.4762 75.9503 13.8532 75.9126 14.3358Z" fill="#263238"/>
<path d="M76.0711 15.2406C76.5282 16.7848 77.1954 18.2589 78.0541 19.6213C77.7001 19.8302 77.3046 19.9587 76.8955 19.9978C76.4863 20.0369 76.0736 19.9856 75.6865 19.8475L76.0711 15.2406Z" fill="#ED847E"/>
<path d="M106.985 42.754L106.698 35.8776L99.4448 37.936C99.5803 39.1077 99.9729 40.235 100.595 41.2374C101.216 42.2397 102.052 43.0923 103.041 43.7342L106.985 42.754Z" fill="#FFC3BD"/>
<path d="M104.225 30.8936L98.0273 34.3319L99.4675 37.936L106.706 35.8776L104.225 30.8936Z" fill="#FFC3BD"/>
<path d="M104.112 27.3348H97.4696C97.3034 27.3376 97.144 27.4014 97.0217 27.514C96.8994 27.6265 96.8227 27.7801 96.8061 27.9455L95.577 40.7182C95.5685 40.7954 95.5765 40.8735 95.6003 40.9475C95.6241 41.0214 95.6633 41.0894 95.7153 41.1471C95.7673 41.2047 95.8309 41.2508 95.9019 41.2821C95.9729 41.3135 96.0498 41.3295 96.1275 41.329H102.763C102.929 41.3247 103.089 41.2607 103.212 41.1486C103.335 41.0364 103.414 40.8837 103.434 40.7182L104.655 27.9455C104.666 27.8685 104.66 27.79 104.638 27.7156C104.615 27.6411 104.577 27.5724 104.525 27.5143C104.474 27.4561 104.41 27.41 104.339 27.379C104.267 27.348 104.19 27.3329 104.112 27.3348Z" fill="#5EC401"/>
<path d="M103.652 27.3347H97.0169C96.8507 27.3376 96.6914 27.4014 96.5691 27.5139C96.4468 27.6265 96.37 27.7801 96.3534 27.9455L95.1244 40.7182C95.1159 40.7954 95.1238 40.8735 95.1476 40.9474C95.1715 41.0213 95.2106 41.0894 95.2626 41.147C95.3146 41.2047 95.3782 41.2508 95.4493 41.2821C95.5203 41.3135 95.5972 41.3294 95.6748 41.329H102.31C102.476 41.3245 102.634 41.2602 102.756 41.1479C102.878 41.0356 102.955 40.883 102.974 40.7182L104.203 27.9455C104.212 27.8681 104.205 27.7894 104.182 27.715C104.159 27.6405 104.119 27.572 104.067 27.514C104.015 27.4561 103.951 27.4101 103.879 27.3791C103.808 27.3482 103.73 27.333 103.652 27.3347Z" fill="#5EC401"/>
<path d="M95.6751 41.0651C95.6354 41.0664 95.5959 41.0589 95.5595 41.0433C95.523 41.0276 95.4904 41.0042 95.464 40.9746C95.4372 40.9439 95.4173 40.9078 95.4056 40.8688C95.3939 40.8298 95.3907 40.7888 95.3961 40.7484L96.6251 27.9756C96.636 27.8742 96.6832 27.7802 96.7581 27.7109C96.8329 27.6416 96.9303 27.6017 97.0323 27.5986H103.667C103.706 27.5978 103.745 27.6047 103.781 27.6189C103.818 27.6332 103.851 27.6545 103.879 27.6816C103.905 27.7128 103.924 27.7489 103.936 27.7878C103.947 27.8266 103.951 27.8674 103.946 27.9078L102.717 40.7258C102.707 40.8272 102.659 40.9213 102.584 40.9906C102.51 41.0599 102.412 41.0997 102.31 41.1028L95.6751 41.0651Z" fill="white"/>
<path d="M101.941 34.2791C101.882 34.9172 101.597 35.5133 101.139 35.9609C100.68 36.4085 100.077 36.6783 99.4377 36.7221C99.1417 36.7275 98.848 36.6684 98.5773 36.5487C98.3065 36.4291 98.065 36.2518 97.8698 36.0293C97.6745 35.8068 97.5302 35.5443 97.4468 35.2603C97.3633 34.9762 97.3429 34.6774 97.3868 34.3847C97.4461 33.7466 97.7306 33.1504 98.1892 32.7029C98.6478 32.2553 99.2507 31.9855 99.89 31.9417C100.186 31.9349 100.481 31.9932 100.752 32.1124C101.024 32.2316 101.266 32.4089 101.461 32.6317C101.657 32.8545 101.801 33.1175 101.884 33.4022C101.967 33.6868 101.986 33.9861 101.941 34.2791Z" fill="#5EC401"/>
<path d="M105.582 37.7927C104.257 36.2025 103.111 34.4703 102.167 32.6278C101.778 32.805 101.469 33.1187 101.296 33.5093C101.124 33.8999 101.101 34.3402 101.232 34.7465C101.511 35.5835 102.574 37.7625 102.574 37.7625C102.574 37.7625 102.061 40.3789 103.026 42.2036C103.992 44.0283 105.582 37.7927 105.582 37.7927Z" fill="#FFC3BD"/>
<path d="M74.3518 11.4706C74.2833 11.4485 74.2246 11.4031 74.186 11.3424C74.1657 11.3105 74.1522 11.2748 74.1461 11.2375C74.1401 11.2002 74.1417 11.162 74.1509 11.1253C74.1601 11.0887 74.1766 11.0542 74.1995 11.0242C74.2223 10.9941 74.2511 10.969 74.284 10.9503C74.6703 10.7056 75.1103 10.5586 75.5661 10.5218C76.0219 10.485 76.4798 10.5596 76.9004 10.7392C76.9347 10.7552 76.9655 10.7781 76.9908 10.8064C77.016 10.8347 77.0352 10.8679 77.0472 10.9039C77.0592 10.9399 77.0638 10.9779 77.0605 11.0157C77.0573 11.0535 77.0464 11.0903 77.0285 11.1237C76.9946 11.1898 76.9363 11.2401 76.8659 11.264C76.7956 11.2879 76.7187 11.2836 76.6515 11.2519C76.3161 11.115 75.9526 11.0606 75.5918 11.0934C75.231 11.1262 74.8833 11.2452 74.578 11.4404C74.545 11.462 74.5075 11.476 74.4684 11.4812C74.4292 11.4864 74.3894 11.4828 74.3518 11.4706Z" fill="#263238"/>
<path d="M59.9051 19.8249C60.8099 24.2659 61.3754 30.4186 58.2915 33.3969C58.2915 33.3969 59.5431 37.9209 67.7919 37.9209C76.8399 37.9209 72.1274 33.9699 72.1274 33.9699C68.3574 32.7937 68.3574 28.4959 69.1868 25.0501L59.9051 19.8249Z" fill="#FFC3BD"/>
<path d="M56.6178 36.3526C55.796 35.214 55.8035 31.5948 56.6631 30.9539C58.0504 29.9285 64.007 29.6872 72.0447 31.5345C71.2077 35.0406 73.055 36.8804 73.055 36.8804L56.6178 36.3526Z" fill="#5EC401"/>
<path d="M47.4189 34.7616C41.7337 36.0661 37.9185 51.2441 37.9185 51.2441L48.6403 59.2968C51.5808 56.1446 53.6425 52.2759 54.6196 48.0773C56.5347 40.4619 53.2397 33.4271 47.4189 34.7616Z" fill="#263238"/>
<path opacity="0.1" d="M47.4189 34.7616C41.7337 36.0661 37.9185 51.2441 37.9185 51.2441L48.6403 59.2968C51.5808 56.1446 53.6425 52.2759 54.6196 48.0773C56.5347 40.4619 53.2397 33.4271 47.4189 34.7616Z" fill="white"/>
<path d="M80.9191 39.1423C84.0407 42.6183 87.0114 46.1395 89.9671 49.5626C91.4751 51.2742 92.9831 52.9631 94.4911 54.5616C95.8801 56.0943 97.3796 57.5232 98.9774 58.8368C99.281 59.0808 99.5982 59.3074 99.9274 59.5154C100.176 59.6813 100.402 59.7416 100.161 59.7114C99.874 59.687 99.5848 59.7178 99.3092 59.8019C99.0722 59.8734 98.8464 59.9774 98.6381 60.1111C98.4888 60.2008 98.3519 60.3099 98.2309 60.4353C98.1631 60.5559 98.329 60.4353 98.4798 60.1488C98.9035 59.405 99.2352 58.6126 99.4675 57.7887C99.754 56.8387 100.018 55.8208 100.222 54.7727C101.119 50.5503 101.73 45.9736 102.257 41.4948L106.819 41.3892C107.52 46.1557 107.722 50.9823 107.422 55.7906C107.333 57.0551 107.174 58.3136 106.947 59.5606C106.701 61.0018 106.286 62.4088 105.711 63.7529C105.29 64.6964 104.711 65.5609 103.999 66.3089C103.68 66.6444 103.317 66.936 102.921 67.176C102.467 67.4611 101.974 67.6794 101.458 67.8245C100.621 68.0544 99.7451 68.1058 98.8869 67.9753C97.8334 67.8128 96.8142 67.4764 95.8709 66.98C95.1918 66.6253 94.5346 66.23 93.903 65.7962C91.8316 64.2942 89.8827 62.6302 88.0746 60.8198C86.3404 59.1233 84.7117 57.3967 83.1132 55.67C79.9389 52.1941 76.9229 48.6653 73.9521 45.1819L80.9191 39.1423Z" fill="#FFC3BD"/>
<path opacity="0.4" d="M52.3879 45.4383C49.3191 48.4995 48.354 54.0716 48.1504 58.9123L48.6556 59.2968C51.5937 56.1429 53.6551 52.2749 54.6348 48.0773C54.7479 47.6249 54.8459 47.165 54.9289 46.7201L52.3879 45.4383Z" fill="#263238"/>
<path d="M37.5191 50.4523L37.3005 51.0329C37.2479 51.2011 37.2503 51.3817 37.3072 51.5484C37.3641 51.7152 37.4727 51.8594 37.6172 51.9603L47.8715 59.719C48.0411 59.8469 48.2535 59.9042 48.4644 59.8789C48.6752 59.8536 48.8681 59.7476 49.0025 59.5833V59.5305C49.07 59.4473 49.1203 59.3517 49.1507 59.2491C49.1811 59.1465 49.191 59.0389 49.1798 58.9324C49.1686 58.826 49.1365 58.7228 49.0854 58.6288C49.0343 58.5347 48.9651 58.4517 48.8819 58.3844L38.8085 50.0904C38.7071 50.0065 38.5868 49.9483 38.458 49.921C38.3292 49.8937 38.1957 49.898 38.069 49.9336C37.9422 49.9691 37.826 50.0349 37.7302 50.1253C37.6344 50.2156 37.562 50.3279 37.5191 50.4523Z" fill="#5EC401"/>
<path d="M83.4376 40.8464C84.7269 47.4062 85.8579 70.5314 82.4499 97.2079H47.8865C47.6301 92.2239 52.4105 58.2487 47.4341 34.7616C51.0194 34.0658 54.6463 33.6049 58.2917 33.3818C62.8897 33.1138 67.4994 33.1138 72.0974 33.3818C73.6054 33.5175 75.1134 33.7362 76.448 33.9699C78.1701 34.2788 79.7587 35.1006 81.0059 36.3276C82.253 37.5546 83.1006 39.1296 83.4376 40.8464Z" fill="#263238"/>
<path opacity="0.1" d="M83.4376 40.8464C84.7269 47.4062 85.8579 70.5314 82.4499 97.2079H47.8865C47.6301 92.2239 52.4105 58.2487 47.4341 34.7616C51.0194 34.0658 54.6463 33.6049 58.2917 33.3818C62.8897 33.1138 67.4994 33.1138 72.0974 33.3818C73.6054 33.5175 75.1134 33.7362 76.448 33.9699C78.1701 34.2788 79.7587 35.1006 81.0059 36.3276C82.253 37.5546 83.1006 39.1296 83.4376 40.8464Z" fill="white"/>
<path opacity="0.4" d="M84.365 49.6984L79.0417 50.9726C78.7251 54.9839 82.0125 59.6361 84.6968 62.7124C84.7194 57.7134 84.5912 53.3025 84.365 49.6984Z" fill="#263238"/>
<path d="M59.7244 11.8401C59.5962 17.8721 59.2116 21.3782 61.9864 24.7259C66.156 29.7626 73.7789 27.6816 75.7016 21.8306C77.4358 16.5526 77.3604 7.60258 71.6903 4.69214C70.4521 4.03861 69.0665 3.71476 67.6668 3.75175C66.2672 3.78874 64.9006 4.18533 63.6986 4.90335C62.4966 5.62137 61.4996 6.63667 60.8036 7.85154C60.1075 9.06641 59.7359 10.44 59.7244 11.8401Z" fill="#FFC3BD"/>
<path d="M72.7383 16.3414C72.7383 16.3414 75.1285 18.2641 75.1737 15.2406C75.2512 13.79 75.1423 12.3355 74.8495 10.9126C74.8495 10.9126 76.3952 10.8146 76.2595 8.24347C76.1238 5.67233 72.1954 1.80431 66.0654 2.75435C59.9354 3.70439 60.3501 6.76563 60.3501 6.76563C60.3501 6.76563 54.6725 7.12755 57.8694 16.3414C60.1917 23.0445 60.5461 24.266 60.5461 24.266C60.5461 24.266 66.2087 25.4648 67.4678 24.1604C68.727 22.856 70.3481 15.5045 72.7383 16.3414Z" fill="#263238"/>
<path d="M58.6007 10.4903C52.712 13.5063 47.9015 18.249 60.0182 18.2339C72.135 18.2188 75.2189 9.18591 75.2189 9.18591L58.6007 10.4903Z" fill="#5EC401"/>
<path opacity="0.2" d="M58.6007 10.4903C52.712 13.5063 47.9015 18.249 60.0182 18.2339C72.135 18.2188 75.2189 9.18591 75.2189 9.18591L58.6007 10.4903Z" fill="white"/>
<path d="M76.493 8.07003C75.739 9.48001 72.5496 12.1265 70.4158 13.348C68.282 14.5695 63.9088 14.9917 62.2424 14.9314C60.5761 14.8711 57.0549 14.479 56.61 13.348C56.1652 12.217 56.2104 8.82403 56.3537 6.63743C56.4969 4.45083 62.4988 0.605429 64.889 0.100249C67.2791 -0.404931 72.429 1.09553 73.937 2.44519C75.445 3.79485 76.493 8.07003 76.493 8.07003Z" fill="#5EC401"/>
<path d="M69.3907 15.0144C69.3841 16.5128 69.8688 17.9721 70.7705 19.1689C71.9769 20.7297 73.4321 19.9229 73.7865 18.2038C74.1258 16.6279 73.9072 13.9211 72.3539 12.9786C70.8007 12.0361 69.4209 13.2199 69.3907 15.0144Z" fill="#FFC3BD"/>
<path d="M70.725 42.8369C67.8673 50.6861 85.5863 60.1789 85.5863 60.1789L92.3723 50.3769C92.3723 50.3769 87.3808 40.575 81.2659 36.1264C73.741 30.6674 72.8965 36.8803 70.725 42.8369Z" fill="#263238"/>
<path opacity="0.1" d="M70.725 42.8369C67.8673 50.6861 85.5863 60.1789 85.5863 60.1789L92.3723 50.3769C92.3723 50.3769 87.3808 40.575 81.2659 36.1264C73.741 30.6674 72.8965 36.8803 70.725 42.8369Z" fill="white"/>
<path d="M92.5007 49.5325L92.8853 50.0376C92.9894 50.1798 93.0456 50.3515 93.0456 50.5277C93.0456 50.704 92.9894 50.8757 92.8853 51.0178L86.0465 60.2996C85.9299 60.4591 85.7593 60.5707 85.5664 60.6137C85.3736 60.6567 85.1717 60.6281 84.9984 60.5333L84.8929 60.473C84.7917 60.4196 84.703 60.3454 84.6324 60.2554C84.5618 60.1654 84.511 60.0615 84.4833 59.9505C84.4556 59.8396 84.4515 59.724 84.4714 59.6113C84.4913 59.4987 84.5347 59.3915 84.5988 59.2968L91.1586 49.5702C91.2314 49.4606 91.3295 49.3701 91.4446 49.3064C91.5597 49.2426 91.6884 49.2074 91.8199 49.2037C91.9514 49.2 92.0819 49.2279 92.2004 49.2851C92.3188 49.3424 92.4218 49.4272 92.5007 49.5325Z" fill="#5EC401"/>
<path d="M245.495 20.1039H139.58C136.971 20.1416 134.471 21.16 132.578 22.9566C130.685 24.7532 129.537 27.1963 129.363 29.8003L118.385 233.674C118.307 234.924 118.486 236.177 118.912 237.354C119.339 238.532 120.003 239.609 120.864 240.519C121.725 241.428 122.764 242.151 123.916 242.642C125.068 243.132 126.309 243.381 127.561 243.371H233.476C236.086 243.335 238.587 242.317 240.48 240.52C242.373 238.723 243.52 236.279 243.692 233.674L254.671 29.8154C254.752 28.5643 254.574 27.3099 254.148 26.1306C253.723 24.9513 253.059 23.8724 252.198 22.9611C251.337 22.0499 250.297 21.3258 249.144 20.8342C247.99 20.3426 246.748 20.094 245.495 20.1039Z" fill="#263238"/>
<path d="M154.449 17.4648H149.224V18.2188H154.449V17.4648Z" fill="#5EC401"/>
<path d="M127.117 24.3564L126.461 23.9794C127.59 22.0165 129.212 20.3828 131.167 19.2401C133.121 18.0974 135.341 17.4854 137.605 17.4648H145.839V18.2188H137.605C135.474 18.2392 133.384 18.8162 131.545 19.8928C129.705 20.9694 128.179 22.5081 127.117 24.3564Z" fill="#5EC401"/>
<path d="M243.519 20.1039H137.605C134.995 20.1416 132.496 21.16 130.603 22.9566C128.71 24.7532 127.562 27.1963 127.388 29.8003L116.417 233.674C116.338 234.924 116.516 236.176 116.942 237.354C117.367 238.531 118.031 239.609 118.891 240.518C119.751 241.428 120.79 242.151 121.942 242.642C123.093 243.132 124.334 243.381 125.586 243.371H231.508C234.117 243.333 236.616 242.314 238.507 240.518C240.399 238.721 241.545 236.278 241.717 233.674L252.695 29.8154C252.776 28.5643 252.598 27.3099 252.173 26.1306C251.747 24.9513 251.083 23.8724 250.222 22.9611C249.361 22.0499 248.322 21.3258 247.168 20.8342C246.015 20.3426 244.773 20.094 243.519 20.1039Z" fill="#5EC401"/>
<path d="M125.677 241.742C124.633 241.753 123.599 241.548 122.639 241.14C121.679 240.733 120.813 240.132 120.095 239.375C119.378 238.618 118.824 237.721 118.469 236.74C118.114 235.759 117.965 234.715 118.031 233.674L129.002 29.8003C129.144 27.6299 130.099 25.593 131.677 24.0962C133.255 22.5993 135.34 21.7525 137.514 21.7249H243.459C244.503 21.7144 245.537 21.9195 246.498 22.3273C247.459 22.7351 248.326 23.3368 249.043 24.0948C249.761 24.8528 250.314 25.7508 250.669 26.7325C251.024 27.7142 251.172 28.7586 251.105 29.8003L240.104 233.674C239.963 235.846 239.009 237.885 237.431 239.383C235.852 240.882 233.767 241.729 231.591 241.757L125.677 241.742Z" fill="white"/>
<path opacity="0.2" d="M130.178 101.347L133.413 41.329C133.485 40.1709 133.99 39.0825 134.828 38.2804C135.667 37.4783 136.777 37.0215 137.937 37.001H241.31C241.87 36.9945 242.424 37.1039 242.94 37.3222C243.455 37.5405 243.919 37.8631 244.304 38.2695C244.688 38.676 244.985 39.1576 245.174 39.6842C245.363 40.2107 245.442 40.7707 245.404 41.329L242.17 101.347C242.098 102.505 241.592 103.594 240.754 104.396C239.916 105.198 238.806 105.655 237.646 105.675H134.272C133.713 105.682 133.158 105.572 132.643 105.354C132.128 105.136 131.663 104.813 131.279 104.407C130.894 104 130.598 103.519 130.408 102.992C130.219 102.466 130.141 101.906 130.178 101.347Z" fill="#5EC401"/>
<path d="M193.258 29.2197H187.226C186.425 29.2282 185.645 28.9609 185.017 28.4625C184.39 27.9641 183.953 27.2651 183.78 26.4827L182.543 20.9408H198.43L197.043 26.2188C196.827 27.0641 196.34 27.8154 195.656 28.3574C194.973 28.8994 194.13 29.2023 193.258 29.2197Z" fill="#5EC401"/>
<path opacity="0.5" d="M192.27 25.0802C192.236 25.6111 192.002 26.1096 191.616 26.4758C191.231 26.8421 190.721 27.0492 190.189 27.0557C189.933 27.0583 189.68 27.0082 189.445 26.9085C189.21 26.8087 188.998 26.6615 188.823 26.4761C188.647 26.2906 188.512 26.0709 188.425 25.8307C188.338 25.5905 188.302 25.335 188.319 25.0802C188.353 24.5493 188.586 24.0509 188.972 23.6846C189.358 23.3184 189.868 23.1113 190.4 23.1048C190.656 23.101 190.909 23.1504 191.145 23.2497C191.38 23.3491 191.593 23.4963 191.769 23.6819C191.944 23.8676 192.08 24.0878 192.166 24.3285C192.252 24.5692 192.288 24.8252 192.27 25.0802Z" fill="white"/>
<path d="M170.215 108.397C162.509 108.397 154.547 108.239 146.743 107.824C146.694 107.822 146.645 107.811 146.6 107.79C146.555 107.769 146.514 107.74 146.481 107.703C146.447 107.667 146.421 107.624 146.404 107.578C146.387 107.531 146.379 107.482 146.381 107.432C146.387 107.331 146.432 107.237 146.507 107.169C146.582 107.102 146.68 107.066 146.781 107.07C179.203 108.782 214.558 106.165 221.314 105.623C221.414 105.615 221.513 105.647 221.589 105.712C221.665 105.777 221.713 105.869 221.721 105.969C221.729 106.069 221.697 106.168 221.632 106.245C221.567 106.321 221.474 106.369 221.374 106.377C216.232 106.791 194.569 108.397 170.215 108.397Z" fill="white"/>
<path d="M176.7 122.165L184.994 129.26L194.042 122.165H176.7Z" fill="#5EC401"/>
</svg>
