<svg width="196" height="220" viewBox="0 0 196 220" fill="none" xmlns="http://www.w3.org/2000/svg">
<path d="M33.4642 7.42874C24.9919 11.9351 21.7769 22.4571 26.2843 30.9305L57.2543 89.1534C61.7607 97.6257 72.2827 100.841 80.756 96.3344C89.2283 91.8269 92.4434 81.3049 87.937 72.8326L56.967 14.6097C52.4595 6.13632 41.9375 2.92129 33.4642 7.42874Z" fill="#EAB875"/>
<path d="M87.9367 72.8316L56.9667 14.6097C52.4593 6.13632 41.9373 2.92129 33.4639 7.42874C33.0068 7.67227 32.5678 7.93609 32.1416 8.21273C39.0715 5.40786 47.719 9.24453 51.9818 17.2607L82.9529 75.4826C87.2168 83.4988 85.5645 92.8139 79.3662 96.9923C79.834 96.7937 80.2987 96.5768 80.7558 96.3333C89.2281 91.8269 92.4431 81.3049 87.9367 72.8316V72.8316Z" fill="#C68D4E"/>
<path d="M55.5592 52.7062C54.1707 50.0957 47.794 50.7729 41.317 54.2175C40.612 54.5924 39.938 54.9855 39.2939 55.3893L44.2436 64.6936C44.9389 64.3849 45.6407 64.0453 46.3456 63.6714C52.8227 60.2257 56.9478 55.3166 55.5592 52.7062Z" fill="#FFF7AF"/>
<path d="M65.4103 71.2262C64.0217 68.6157 57.6451 69.2929 51.168 72.7386C50.4641 73.1125 49.7902 73.5056 49.145 73.9093L54.0947 83.2137C54.79 82.906 55.4918 82.5664 56.1967 82.1915C62.6738 78.7457 66.7988 73.8367 65.4103 71.2262Z" fill="#FFF7AF"/>
<path d="M31.4654 35.6975C30.7604 36.0724 30.0865 36.4644 29.4424 36.8692L34.392 46.1736C35.0874 45.8649 35.7891 45.5252 36.493 45.1503C42.9701 41.7056 47.0962 36.7966 45.7076 34.1861C44.3191 31.5756 37.9424 32.2517 31.4654 35.6975Z" fill="#FFF7AF"/>
<path d="M91.3174 5.25726V17.0129C91.3174 17.3611 91.5994 17.6431 91.9476 17.6431H109.229C109.577 17.6431 109.859 17.3611 109.859 17.0129V5.25726C109.859 2.35413 107.505 0 104.602 0H96.5746C93.6715 0 91.3174 2.35413 91.3174 5.25726V5.25726Z" fill="#ED5176"/>
<path d="M104.602 0H99.9863C102.36 0 104.283 2.35413 104.283 5.25726V17.0129C104.283 17.3611 104.053 17.6431 103.769 17.6431H109.229C109.577 17.6431 109.858 17.3611 109.858 17.0129V5.25726C109.859 2.35413 107.505 0 104.602 0V0Z" fill="#BA365F"/>
<path d="M108.331 25.0719V17.6431H92.8462V25.0719C92.8462 26.9336 91.9062 28.6725 90.3414 29.6829C87.653 31.4186 83.6155 34.2694 82.4876 36.3885C77.4194 45.9151 79.9679 79.5511 79.9679 79.5511H121.208C121.208 79.5511 123.756 45.9151 118.688 36.3885C117.56 34.2694 113.523 31.4186 110.834 29.6829C109.271 28.6725 108.331 26.9336 108.331 25.0719V25.0719Z" fill="#804C68"/>
<path d="M118.688 36.3885C117.561 34.2705 113.523 31.4197 110.834 29.6829C109.27 28.6736 108.33 26.9336 108.33 25.0719V17.6431H103.034V25.0719C103.034 26.9336 103.803 28.6725 105.081 29.6829C107.278 31.4186 110.579 34.2694 111.501 36.3885C115.643 45.9151 113.56 79.5511 113.56 79.5511H121.209C121.209 79.5511 123.756 45.9151 118.688 36.3885V36.3885Z" fill="#60364E"/>
<path d="M131.704 48.7584H105.885L98.1299 58.506V104.243H139.458V58.506L131.704 48.7584Z" fill="#E9E9EA"/>
<path d="M131.704 48.7584H126.555L133.12 58.506V104.243H139.459V58.506L131.704 48.7584Z" fill="#C5C4CC"/>
<path d="M108.378 37.8284H129.211C130.588 37.8284 131.704 38.9435 131.704 40.3203V48.7584H105.886V40.3203C105.886 38.9435 107.001 37.8284 108.378 37.8284V37.8284Z" fill="#C8E7F7"/>
<path d="M129.211 37.8284H124.261C125.528 37.8284 126.554 38.8548 126.554 40.1216V48.7584H131.704V40.3203C131.704 38.9445 130.588 37.8284 129.211 37.8284Z" fill="#8CBCD6"/>
<path d="M79.5414 57.2478C79.5467 57.2435 79.551 57.2403 79.5563 57.236C83.2969 54.2229 83.3129 54.209 92.1601 47.0825C92.4848 46.823 92.7871 46.5271 93.0595 46.1928C95.138 43.6453 94.7578 39.8962 92.2103 37.8177C89.6629 35.7402 85.9138 36.1205 83.8352 38.6668C83.5628 39.0012 83.3332 39.3568 83.1452 39.7264C77.9392 49.8244 77.9285 49.8436 75.7282 54.1128C75.725 54.1182 75.7218 54.1235 75.7197 54.1289C75.7186 54.1299 75.7186 54.131 75.7175 54.1321C75.1824 55.1681 75.4249 56.4723 76.3648 57.2392C77.3048 58.0061 78.6303 57.9826 79.5382 57.2488C79.5393 57.2488 79.5403 57.2488 79.5414 57.2478Z" fill="#7FAB38"/>
<path d="M71.3351 57.2478C71.3297 57.2435 71.3254 57.2403 71.3201 57.236C67.5796 54.2229 67.5625 54.209 58.7153 47.0825C58.3916 46.823 58.0894 46.5271 57.8159 46.1928C55.7384 43.6453 56.1187 39.8962 58.6661 37.8177C61.2125 35.7402 64.9627 36.1205 67.0402 38.6668C67.3136 39.0012 67.5422 39.3568 67.7312 39.7264C72.9372 49.8244 72.9479 49.8436 75.1482 54.1128C75.1514 54.1182 75.1536 54.1235 75.1568 54.1289C75.1578 54.1299 75.1578 54.131 75.1578 54.1321C75.694 55.1681 75.4516 56.4723 74.5116 57.2392C73.5717 58.0061 72.2451 57.9826 71.3372 57.2488C71.3361 57.2488 71.3351 57.2488 71.3351 57.2478Z" fill="#7FAB38"/>
<path d="M79.232 55.4266C79.2341 55.417 79.2362 55.4074 79.2384 55.3989C80.7658 48.1699 80.7733 48.1378 84.3867 31.0416C84.5213 30.4178 84.5928 29.7716 84.5928 29.1072C84.5928 24.0507 80.4945 19.9524 75.438 19.9524C70.3816 19.9524 66.2832 24.0507 66.2832 29.1072C66.2832 29.7716 66.3558 30.4178 66.4893 31.0416C70.1039 48.1378 70.1103 48.1699 71.6387 55.3989C71.6409 55.4074 71.6419 55.417 71.6441 55.4266C71.6451 55.4277 71.6451 55.4298 71.6451 55.4309H71.6462C72.0158 57.1869 73.572 58.506 75.438 58.506C77.304 58.506 78.8613 57.1869 79.2309 55.4309C79.2309 55.4298 79.232 55.4277 79.232 55.4266Z" fill="#AED559"/>
<path d="M90.7566 70.4454C90.9862 69.3762 91.1112 68.2675 91.1112 67.1289C91.1112 58.4729 84.0937 51.4554 75.4377 51.4554C66.7817 51.4554 59.7642 58.4729 59.7642 67.1289C59.7642 68.2675 59.8891 69.3762 60.1198 70.4454C66.5659 100.609 66.5809 100.681 69.1924 112.899C69.7745 115.816 72.3487 118.015 75.4377 118.015C78.5267 118.015 81.1019 115.816 81.684 112.899C84.2945 100.681 84.3105 100.609 90.7566 70.4454Z" fill="#FFCD34"/>
<path d="M75.4378 51.4554C74.8034 51.4554 74.1807 51.4981 73.5654 51.5707C79.6793 52.4968 84.4218 59.1063 84.4218 67.1289C84.4218 68.2675 84.3235 69.3762 84.1419 70.4454C79.0716 100.609 79.0598 100.681 77.0058 112.898C76.6448 115.199 75.3065 117.048 73.5665 117.73C74.1582 117.911 74.7863 118.015 75.4378 118.015C78.5268 118.015 81.1021 115.816 81.6842 112.898C84.2946 100.681 84.3107 100.609 90.7567 70.4454C90.9875 69.3762 91.1114 68.2675 91.1114 67.1289C91.1114 58.4729 84.0938 51.4554 75.4378 51.4554V51.4554Z" fill="#E69012"/>
<path d="M37.9414 83.2906L39.1078 93.2689L39.9804 100.721L43.8107 133.463C44.2465 137.19 47.4038 140 51.1561 140H132.862C136.614 140 139.771 137.19 140.207 133.463L146.076 83.2906H37.9414Z" fill="#AED559"/>
<path d="M145.332 89.6597L146.076 83.2906H37.9414L38.6859 89.6597H145.332Z" fill="#7FAB38"/>
<path d="M139.035 83.2906L133.165 133.463C132.729 137.19 129.572 140 125.82 140H132.862C136.614 140 139.772 137.19 140.207 133.463L146.077 83.2906H139.035Z" fill="#7FAB38"/>
<path d="M30.2812 72.4876V79.3834C30.2812 81.541 32.0308 83.2905 34.1884 83.2905H149.83C151.988 83.2905 153.737 81.541 153.737 79.3834V72.4876C153.737 70.329 151.988 68.5794 149.83 68.5794H34.1884C32.0308 68.5794 30.2812 70.329 30.2812 72.4876V72.4876Z" fill="#90B6E1"/>
<path d="M149.83 68.5794H142.675C144.832 68.5794 146.582 70.329 146.582 72.4876V79.3834C146.582 81.541 144.832 83.2905 142.675 83.2905H149.83C151.988 83.2905 153.737 81.541 153.737 79.3834V72.4876C153.737 70.329 151.988 68.5794 149.83 68.5794V68.5794Z" fill="#5692D8"/>
<path d="M156.682 128.253C155.146 128.47 153.559 127.772 152.71 126.359L124.672 79.6355C123.54 77.7502 124.151 75.3053 126.036 74.1742C127.922 73.0431 130.366 73.654 131.498 75.5392L159.536 122.263C160.667 124.147 160.056 126.593 158.172 127.724C157.7 128.007 157.194 128.18 156.682 128.253Z" fill="#575B7A"/>
<path d="M27.3361 128.253C28.872 128.47 30.4593 127.772 31.3084 126.359L59.3464 79.6355C60.4776 77.7502 59.8666 75.3053 57.9825 74.1742C56.0972 73.0431 53.6523 73.654 52.5212 75.5392L24.4821 122.263C23.351 124.148 23.9619 126.593 25.8461 127.724C26.3182 128.007 26.8245 128.18 27.3361 128.253Z" fill="#575B7A"/>
<path d="M68.0763 103.85C68.0763 105.799 66.4965 107.38 64.5461 107.38C62.5968 107.38 61.0171 105.799 61.0171 103.85V96.8599C61.0171 94.9106 62.5968 93.3298 64.5461 93.3298C66.4955 93.3298 68.0763 94.9106 68.0763 96.8599V103.85Z" fill="#7FAB38"/>
<path d="M81.8078 126.688C81.8078 128.637 80.227 130.218 78.2777 130.218C76.3284 130.218 74.7476 128.637 74.7476 126.688V119.698C74.7476 117.749 76.3284 116.168 78.2777 116.168C80.227 116.168 81.8078 117.749 81.8078 119.698V126.688Z" fill="#7FAB38"/>
<path d="M95.5387 103.85C95.5387 105.799 93.9589 107.38 92.0096 107.38C90.0603 107.38 88.4795 105.799 88.4795 103.85V96.8599C88.4795 94.9106 90.0603 93.3298 92.0096 93.3298C93.9589 93.3298 95.5387 94.9106 95.5387 96.8599V103.85Z" fill="#7FAB38"/>
<path d="M109.27 126.688C109.27 128.637 107.689 130.218 105.74 130.218C103.791 130.218 102.21 128.637 102.21 126.688V119.698C102.21 117.749 103.791 116.168 105.74 116.168C107.689 116.168 109.27 117.749 109.27 119.698V126.688Z" fill="#7FAB38"/>
<path d="M123.001 103.85C123.001 105.799 121.421 107.38 119.471 107.38C117.522 107.38 115.942 105.799 115.942 103.85V96.8599C115.942 94.9106 117.522 93.3298 119.471 93.3298C121.42 93.3298 123.001 94.9106 123.001 96.8599V103.85Z" fill="#7FAB38"/>
<path d="M135.948 60.5568H125.506C124.373 60.5568 123.455 59.6382 123.455 58.506C123.455 57.3727 124.373 56.4552 125.506 56.4552H135.948C137.081 56.4552 137.999 57.3727 137.999 58.506C137.999 59.6382 137.081 60.5568 135.948 60.5568Z" fill="#C5C4CC"/>
<path d="M34 217.063V218.938C34 219.524 35.7431 220 37.8927 220H153.107C155.257 220 157 219.524 157 218.938V217.063C157 216.476 155.257 216 153.107 216H37.8927C35.7431 216 34 216.476 34 217.063Z" fill="#90B6E1"/>
<path d="M10.152 171.2C12.088 171.2 13.544 171.568 14.52 172.304C15.512 173.04 16.008 174.112 16.008 175.52C16.008 176.608 15.8 177.552 15.384 178.352C14.984 179.136 14.408 179.784 13.656 180.296C12.904 180.808 12 181.192 10.944 181.448C9.888 181.688 8.712 181.808 7.416 181.808H5.76L4.272 188H1.944L5.88 171.584C6.552 171.424 7.264 171.32 8.016 171.272C8.768 171.224 9.48 171.2 10.152 171.2ZM9.864 173.168C8.728 173.168 8.04 173.2 7.8 173.264L6.216 179.864H7.728C8.4 179.864 9.088 179.808 9.792 179.696C10.496 179.568 11.128 179.352 11.688 179.048C12.248 178.744 12.704 178.328 13.056 177.8C13.424 177.256 13.608 176.56 13.608 175.712C13.608 174.8 13.272 174.152 12.6 173.768C11.928 173.368 11.016 173.168 9.864 173.168ZM23.1323 175.256C23.3243 175.256 23.5403 175.264 23.7803 175.28C24.0203 175.296 24.2523 175.328 24.4763 175.376C24.7163 175.408 24.9323 175.448 25.1243 175.496C25.3163 175.528 25.4603 175.568 25.5563 175.616L24.9083 177.56C24.5883 177.432 24.2203 177.336 23.8043 177.272C23.3883 177.208 22.9883 177.176 22.6043 177.176C22.2683 177.176 21.9323 177.2 21.5963 177.248C21.2763 177.296 20.9963 177.36 20.7563 177.44L18.2123 188H15.9803L18.8603 176C19.5003 175.776 20.1883 175.6 20.9243 175.472C21.6603 175.328 22.3963 175.256 23.1323 175.256ZM29.5688 188.312C28.2568 188.312 27.2248 187.928 26.4728 187.16C25.7368 186.376 25.3688 185.304 25.3688 183.944C25.3688 183.016 25.4968 182.04 25.7528 181.016C26.0248 179.992 26.4488 179.048 27.0248 178.184C27.6008 177.32 28.3448 176.608 29.2568 176.048C30.1688 175.488 31.2728 175.208 32.5688 175.208C33.8808 175.208 34.9048 175.6 35.6407 176.384C36.3928 177.152 36.7688 178.216 36.7688 179.576C36.7688 180.504 36.6328 181.48 36.3608 182.504C36.1048 183.528 35.6888 184.472 35.1128 185.336C34.5368 186.2 33.7928 186.912 32.8808 187.472C31.9688 188.032 30.8648 188.312 29.5688 188.312ZM29.9528 186.416C30.6728 186.416 31.3128 186.208 31.8728 185.792C32.4488 185.376 32.9288 184.848 33.3128 184.208C33.7128 183.552 34.0168 182.832 34.2248 182.048C34.4328 181.264 34.5368 180.504 34.5368 179.768C34.5368 178.952 34.3608 178.304 34.0088 177.824C33.6568 177.344 33.0488 177.104 32.1848 177.104C31.4648 177.104 30.8168 177.312 30.2408 177.728C29.6808 178.144 29.2008 178.68 28.8008 179.336C28.4168 179.976 28.1208 180.688 27.9128 181.472C27.7048 182.256 27.6008 183.016 27.6008 183.752C27.6008 184.568 27.7768 185.216 28.1288 185.696C28.4808 186.176 29.0888 186.416 29.9528 186.416ZM52.5533 175.256C53.2573 175.256 53.8493 175.368 54.3293 175.592C54.8253 175.8 55.2173 176.088 55.5053 176.456C55.8093 176.824 56.0253 177.256 56.1533 177.752C56.2813 178.232 56.3453 178.744 56.3453 179.288C56.3453 179.64 56.3133 180.024 56.2493 180.44C56.2013 180.84 56.1293 181.232 56.0333 181.616L54.4973 188H52.2653L53.6813 182.096C53.7613 181.728 53.8493 181.32 53.9453 180.872C54.0573 180.408 54.1133 179.952 54.1133 179.504C54.1133 179.2 54.0733 178.904 53.9933 178.616C53.9293 178.328 53.8093 178.08 53.6333 177.872C53.4733 177.664 53.2413 177.496 52.9373 177.368C52.6333 177.24 52.2573 177.176 51.8093 177.176C51.2973 177.176 50.8013 177.28 50.3213 177.488C49.8413 177.68 49.4413 177.88 49.1213 178.088C49.1533 178.312 49.1773 178.536 49.1933 178.76C49.2253 178.968 49.2413 179.176 49.2413 179.384C49.2413 179.752 49.2093 180.128 49.1453 180.512C49.0973 180.88 49.0333 181.248 48.9532 181.616L47.4173 188H45.1853L46.6013 182.096C46.6813 181.728 46.7693 181.312 46.8653 180.848C46.9613 180.384 47.0093 179.92 47.0093 179.456C47.0093 179.152 46.9773 178.864 46.9133 178.592C46.8493 178.304 46.7373 178.056 46.5773 177.848C46.4333 177.64 46.2333 177.48 45.9773 177.368C45.7213 177.24 45.3933 177.176 44.9933 177.176C44.5933 177.176 44.2013 177.2 43.8173 177.248C43.4493 177.296 43.1373 177.36 42.8813 177.44L40.3373 188H38.1053L40.9853 176C41.7053 175.776 42.4893 175.6 43.3372 175.472C44.2013 175.328 44.9693 175.256 45.6413 175.256C46.3133 175.256 46.8813 175.376 47.3453 175.616C47.8093 175.84 48.1773 176.144 48.4493 176.528C48.6093 176.416 48.8253 176.288 49.0973 176.144C49.3853 176 49.7053 175.864 50.0573 175.736C50.4253 175.608 50.8173 175.496 51.2333 175.4C51.6653 175.304 52.1053 175.256 52.5533 175.256ZM62.7563 188.312C61.4443 188.312 60.4123 187.928 59.6603 187.16C58.9243 186.376 58.5563 185.304 58.5563 183.944C58.5563 183.016 58.6843 182.04 58.9403 181.016C59.2123 179.992 59.6363 179.048 60.2123 178.184C60.7883 177.32 61.5323 176.608 62.4443 176.048C63.3563 175.488 64.4603 175.208 65.7563 175.208C67.0683 175.208 68.0923 175.6 68.8282 176.384C69.5803 177.152 69.9563 178.216 69.9563 179.576C69.9563 180.504 69.8203 181.48 69.5483 182.504C69.2923 183.528 68.8763 184.472 68.3003 185.336C67.7243 186.2 66.9803 186.912 66.0683 187.472C65.1563 188.032 64.0523 188.312 62.7563 188.312ZM63.1403 186.416C63.8603 186.416 64.5003 186.208 65.0603 185.792C65.6363 185.376 66.1163 184.848 66.5003 184.208C66.9003 183.552 67.2043 182.832 67.4123 182.048C67.6203 181.264 67.7243 180.504 67.7243 179.768C67.7243 178.952 67.5483 178.304 67.1963 177.824C66.8443 177.344 66.2363 177.104 65.3723 177.104C64.6523 177.104 64.0043 177.312 63.4283 177.728C62.8683 178.144 62.3883 178.68 61.9883 179.336C61.6043 179.976 61.3083 180.688 61.1003 181.472C60.8923 182.256 60.7883 183.016 60.7883 183.752C60.7883 184.568 60.9643 185.216 61.3163 185.696C61.6683 186.176 62.2763 186.416 63.1403 186.416ZM71.8688 183.536C71.8688 182.448 72.0288 181.4 72.3488 180.392C72.6848 179.384 73.1728 178.496 73.8128 177.728C74.4528 176.96 75.2368 176.352 76.1648 175.904C77.0928 175.44 78.1568 175.208 79.3568 175.208C79.8848 175.208 80.3888 175.248 80.8688 175.328C81.3488 175.392 81.8047 175.528 82.2368 175.736L81.3968 177.608C81.1408 177.464 80.8368 177.352 80.4848 177.272C80.1488 177.192 79.7088 177.152 79.1648 177.152C78.3808 177.152 77.6768 177.328 77.0528 177.68C76.4288 178.016 75.8928 178.472 75.4448 179.048C75.0128 179.608 74.6768 180.264 74.4368 181.016C74.2128 181.752 74.1008 182.52 74.1008 183.32C74.1008 183.736 74.1408 184.128 74.2208 184.496C74.3168 184.864 74.4768 185.192 74.7008 185.48C74.9248 185.752 75.2208 185.968 75.5888 186.128C75.9728 186.288 76.4528 186.368 77.0288 186.368C77.3168 186.368 77.6208 186.344 77.9408 186.296C78.2608 186.232 78.5568 186.16 78.8288 186.08C79.1008 186 79.3408 185.92 79.5488 185.84C79.7728 185.744 79.9328 185.656 80.0288 185.576L80.2208 187.472C79.9168 187.664 79.4448 187.848 78.8048 188.024C78.1648 188.2 77.4528 188.296 76.6688 188.312C76.5888 188.424 76.5168 188.528 76.4528 188.624C76.3888 188.72 76.3248 188.816 76.2608 188.912C76.5808 189.088 76.8208 189.28 76.9808 189.488C77.1408 189.696 77.2208 189.984 77.2208 190.352C77.2208 191.072 76.9728 191.616 76.4768 191.984C75.9808 192.352 75.3008 192.536 74.4368 192.536C73.9728 192.536 73.5808 192.496 73.2608 192.416C72.9568 192.352 72.7008 192.272 72.4928 192.176L73.0448 190.856C73.1728 190.92 73.3408 190.976 73.5488 191.024C73.7568 191.088 74.0128 191.12 74.3168 191.12C74.5888 191.12 74.8128 191.072 74.9888 190.976C75.1648 190.896 75.2528 190.744 75.2528 190.52C75.2528 190.328 75.1888 190.184 75.0608 190.088C74.9328 189.992 74.7168 189.872 74.4128 189.728L74.2688 189.656C74.3808 189.448 74.5328 189.2 74.7248 188.912C74.9168 188.64 75.0928 188.392 75.2528 188.168C74.1488 187.912 73.3088 187.376 72.7328 186.56C72.1568 185.744 71.8688 184.736 71.8688 183.536ZM90.4539 188.144C90.3739 187.968 90.2939 187.776 90.2139 187.568C90.1339 187.344 90.0699 187.112 90.0219 186.872C89.6699 187.192 89.1979 187.512 88.6059 187.832C88.0139 188.152 87.2859 188.312 86.4219 188.312C85.7179 188.312 85.1099 188.2 84.5979 187.976C84.1019 187.752 83.6939 187.44 83.3739 187.04C83.0539 186.64 82.8139 186.168 82.6539 185.624C82.5099 185.08 82.4379 184.48 82.4379 183.824C82.4379 182.752 82.6139 181.704 82.9659 180.68C83.3339 179.656 83.8779 178.744 84.5979 177.944C85.3179 177.144 86.2219 176.496 87.3099 176C88.3979 175.504 89.6699 175.256 91.1259 175.256C91.5579 175.256 92.0619 175.304 92.6379 175.4C93.2139 175.496 93.7099 175.656 94.1259 175.88L92.2779 183.416C92.1979 183.784 92.1259 184.136 92.0619 184.472C92.0139 184.808 91.9899 185.16 91.9899 185.528C91.9899 185.896 92.0219 186.272 92.0859 186.656C92.1499 187.024 92.2619 187.424 92.4219 187.856L90.4539 188.144ZM86.8779 186.416C87.5499 186.416 88.1259 186.272 88.6059 185.984C89.0859 185.696 89.5019 185.36 89.8539 184.976C89.8699 184.704 89.8939 184.424 89.9259 184.136C89.9739 183.832 90.0299 183.528 90.0939 183.224L91.5339 177.272C91.4539 177.24 91.3179 177.216 91.1259 177.2C90.9499 177.184 90.7899 177.176 90.6459 177.176C89.7339 177.176 88.9099 177.352 88.1739 177.704C87.4379 178.056 86.8059 178.528 86.2779 179.12C85.7659 179.696 85.3659 180.376 85.0779 181.16C84.8059 181.928 84.6699 182.736 84.6699 183.584C84.6699 183.92 84.7019 184.264 84.7659 184.616C84.8299 184.952 84.9419 185.256 85.1019 185.528C85.2779 185.784 85.5019 186 85.7739 186.176C86.0619 186.336 86.4299 186.416 86.8779 186.416ZM91.0059 171.032C91.2459 171.16 91.4619 171.264 91.6539 171.344C91.8459 171.424 92.0379 171.464 92.2299 171.464C92.5659 171.464 92.8459 171.344 93.0699 171.104C93.2939 170.848 93.4939 170.584 93.6699 170.312L94.7979 171.008C94.4779 171.68 94.0939 172.2 93.6459 172.568C93.2139 172.92 92.6379 173.096 91.9179 173.096C91.5979 173.096 91.3099 173.04 91.0539 172.928C90.8139 172.816 90.5819 172.696 90.3579 172.568C90.1179 172.44 89.9019 172.336 89.7099 172.256C89.5179 172.176 89.3259 172.136 89.1339 172.136C88.7979 172.136 88.5179 172.264 88.2939 172.52C88.0699 172.76 87.8699 173.016 87.6939 173.288L86.5659 172.592C86.8859 171.92 87.2619 171.408 87.6939 171.056C88.1419 170.688 88.7259 170.504 89.4459 170.504C89.7659 170.504 90.0459 170.56 90.2859 170.672C90.5419 170.784 90.7819 170.904 91.0059 171.032ZM99.7406 188.312C98.4286 188.312 97.3966 187.928 96.6446 187.16C95.9086 186.376 95.5406 185.304 95.5406 183.944C95.5406 183.016 95.6686 182.04 95.9246 181.016C96.1966 179.992 96.6206 179.048 97.1966 178.184C97.7726 177.32 98.5166 176.608 99.4286 176.048C100.341 175.488 101.445 175.208 102.741 175.208C104.053 175.208 105.077 175.6 105.813 176.384C106.565 177.152 106.941 178.216 106.941 179.576C106.941 180.504 106.805 181.48 106.533 182.504C106.277 183.528 105.861 184.472 105.285 185.336C104.709 186.2 103.965 186.912 103.053 187.472C102.141 188.032 101.037 188.312 99.7406 188.312ZM100.125 186.416C100.845 186.416 101.485 186.208 102.045 185.792C102.621 185.376 103.101 184.848 103.485 184.208C103.885 183.552 104.189 182.832 104.397 182.048C104.605 181.264 104.709 180.504 104.709 179.768C104.709 178.952 104.533 178.304 104.181 177.824C103.829 177.344 103.221 177.104 102.357 177.104C101.637 177.104 100.989 177.312 100.413 177.728C99.8526 178.144 99.3726 178.68 98.9726 179.336C98.5886 179.976 98.2926 180.688 98.0846 181.472C97.8766 182.256 97.7726 183.016 97.7726 183.752C97.7726 184.568 97.9486 185.216 98.3006 185.696C98.6526 186.176 99.2606 186.416 100.125 186.416Z" fill="#AED559"/>
<path d="M119.107 188.336C118.307 188.336 117.619 188.2 117.043 187.928C116.483 187.656 116.019 187.288 115.651 186.824C115.299 186.344 115.035 185.792 114.859 185.168C114.699 184.528 114.619 183.848 114.619 183.128C114.619 182.04 114.811 181.016 115.195 180.056C115.595 179.08 116.139 178.232 116.827 177.512C117.515 176.792 118.331 176.224 119.275 175.808C120.219 175.392 121.251 175.184 122.371 175.184C122.659 175.184 122.923 175.2 123.163 175.232C123.419 175.264 123.675 175.312 123.931 175.376L125.227 169.952L128.947 169.376L125.779 182.552C125.555 183.464 125.491 184.384 125.587 185.312C125.683 186.224 125.867 187.04 126.139 187.76L122.947 188.216C122.851 188.024 122.763 187.84 122.683 187.664C122.603 187.488 122.523 187.288 122.443 187.064C121.995 187.432 121.491 187.736 120.931 187.976C120.387 188.216 119.779 188.336 119.107 188.336ZM123.235 178.232C123.139 178.216 123.051 178.2 122.971 178.184C122.907 178.168 122.835 178.16 122.755 178.16C122.691 178.144 122.603 178.136 122.491 178.136C122.379 178.136 122.235 178.136 122.059 178.136C121.499 178.136 120.979 178.272 120.499 178.544C120.019 178.8 119.603 179.152 119.251 179.6C118.915 180.048 118.651 180.56 118.459 181.136C118.267 181.696 118.171 182.272 118.171 182.864C118.171 183.632 118.299 184.24 118.555 184.688C118.827 185.12 119.307 185.336 119.995 185.336C120.363 185.336 120.699 185.264 121.003 185.12C121.307 184.976 121.627 184.736 121.963 184.4C121.995 184 122.043 183.584 122.107 183.152C122.187 182.704 122.267 182.296 122.347 181.928L123.235 178.232ZM133.767 188.336C132.919 188.336 132.183 188.208 131.559 187.952C130.935 187.696 130.415 187.336 129.999 186.872C129.599 186.408 129.295 185.864 129.087 185.24C128.879 184.6 128.775 183.896 128.775 183.128C128.775 182.168 128.927 181.208 129.231 180.248C129.551 179.288 130.015 178.424 130.623 177.656C131.231 176.888 131.975 176.264 132.855 175.784C133.735 175.288 134.743 175.04 135.879 175.04C136.711 175.04 137.439 175.168 138.063 175.424C138.703 175.68 139.223 176.04 139.623 176.504C140.039 176.968 140.351 177.52 140.559 178.16C140.767 178.784 140.871 179.48 140.871 180.248C140.871 181.208 140.719 182.168 140.415 183.128C140.111 184.088 139.663 184.952 139.071 185.72C138.479 186.488 137.735 187.12 136.839 187.616C135.959 188.096 134.935 188.336 133.767 188.336ZM135.543 178.064C135.015 178.064 134.551 178.216 134.151 178.52C133.751 178.824 133.415 179.208 133.143 179.672C132.871 180.136 132.663 180.648 132.519 181.208C132.391 181.752 132.327 182.272 132.327 182.768C132.327 183.584 132.455 184.216 132.711 184.664C132.967 185.096 133.431 185.312 134.103 185.312C134.631 185.312 135.095 185.16 135.495 184.856C135.895 184.552 136.231 184.168 136.503 183.704C136.775 183.24 136.975 182.736 137.103 182.192C137.247 181.632 137.319 181.104 137.319 180.608C137.319 179.792 137.191 179.168 136.935 178.736C136.679 178.288 136.215 178.064 135.543 178.064ZM152.09 185C152.266 185.016 152.442 185.032 152.618 185.048C152.81 185.048 153.066 185.048 153.386 185.048C154.426 185.048 155.362 184.888 156.194 184.568C157.042 184.248 157.754 183.792 158.33 183.2C158.922 182.592 159.378 181.856 159.698 180.992C160.018 180.112 160.178 179.128 160.178 178.04C160.178 177.48 160.106 176.976 159.962 176.528C159.818 176.064 159.578 175.672 159.242 175.352C158.922 175.016 158.498 174.76 157.97 174.584C157.458 174.408 156.834 174.32 156.098 174.32C155.618 174.32 155.13 174.344 154.634 174.392L152.09 185ZM164.018 177.848C164.018 179.464 163.754 180.912 163.226 182.192C162.698 183.472 161.938 184.56 160.946 185.456C159.97 186.336 158.778 187.016 157.37 187.496C155.962 187.976 154.37 188.216 152.594 188.216C151.922 188.216 151.146 188.176 150.266 188.096C149.386 188.016 148.538 187.888 147.722 187.712L151.586 171.656C152.498 171.48 153.37 171.36 154.202 171.296C155.05 171.216 155.81 171.176 156.482 171.176C157.666 171.176 158.722 171.336 159.65 171.656C160.594 171.976 161.386 172.432 162.026 173.024C162.682 173.616 163.178 174.32 163.514 175.136C163.85 175.952 164.018 176.856 164.018 177.848ZM168.38 188H164.828L167.828 175.376H171.404L168.38 188ZM170.108 173.84C169.612 173.84 169.164 173.696 168.764 173.408C168.364 173.104 168.164 172.648 168.164 172.04C168.164 171.704 168.228 171.392 168.356 171.104C168.5 170.8 168.684 170.544 168.908 170.336C169.132 170.112 169.388 169.936 169.676 169.808C169.98 169.68 170.3 169.616 170.636 169.616C171.132 169.616 171.58 169.768 171.98 170.072C172.38 170.36 172.58 170.808 172.58 171.416C172.58 171.752 172.508 172.072 172.364 172.376C172.236 172.664 172.06 172.92 171.836 173.144C171.612 173.352 171.348 173.52 171.044 173.648C170.756 173.776 170.444 173.84 170.108 173.84ZM183.457 182.552C183.233 183.464 183.169 184.384 183.265 185.312C183.361 186.224 183.545 187.04 183.817 187.76L180.625 188.216C180.529 188.024 180.441 187.84 180.361 187.664C180.281 187.488 180.201 187.288 180.121 187.064C179.673 187.432 179.177 187.736 178.633 187.976C178.089 188.216 177.481 188.336 176.809 188.336C176.009 188.336 175.321 188.2 174.745 187.928C174.185 187.64 173.721 187.264 173.353 186.8C173.001 186.32 172.745 185.768 172.585 185.144C172.425 184.504 172.345 183.824 172.345 183.104C172.345 182 172.537 180.96 172.921 179.984C173.321 179.008 173.865 178.16 174.553 177.44C175.257 176.704 176.081 176.128 177.025 175.712C177.969 175.296 178.993 175.088 180.097 175.088C180.241 175.088 180.489 175.096 180.841 175.112C181.209 175.128 181.625 175.168 182.089 175.232C182.553 175.28 183.041 175.368 183.553 175.496C184.065 175.624 184.553 175.8 185.017 176.024L183.457 182.552ZM180.961 178.136C180.753 178.104 180.561 178.08 180.385 178.064C180.225 178.048 180.025 178.04 179.785 178.04C179.241 178.04 178.729 178.176 178.249 178.448C177.785 178.72 177.377 179.08 177.025 179.528C176.673 179.96 176.393 180.464 176.185 181.04C175.993 181.616 175.897 182.216 175.897 182.84C175.897 183.608 176.025 184.216 176.281 184.664C176.537 185.112 177.009 185.336 177.697 185.336C178.065 185.336 178.393 185.264 178.681 185.12C178.985 184.976 179.305 184.736 179.641 184.4C179.673 184 179.721 183.584 179.785 183.152C179.865 182.704 179.945 182.296 180.025 181.928L180.961 178.136Z" fill="#7FAB38"/>
</svg>
