<svg width="336" height="316" viewBox="0 0 336 316" fill="none" xmlns="http://www.w3.org/2000/svg">
<path d="M299.198 96.6125C293.323 143.459 252.283 190.227 207.148 220.346C90.5077 298.814 -22.2529 165.663 6.18993 117.841C27.5394 69.336 94.1365 82.6589 122.467 63.5904C281.694 -44.3405 304.719 57.4042 299.198 96.6125Z" fill="#637465"/>
<path opacity="0.9" d="M299.198 96.6125C293.323 143.459 252.283 190.227 207.148 220.346C90.5077 298.814 -22.2529 165.663 6.18993 117.841C27.5394 69.336 94.1365 82.6589 122.467 63.5904C281.694 -44.3405 304.719 57.4042 299.198 96.6125Z" fill="white"/>
<path d="M168 315.412C260.519 315.412 335.521 311.033 335.521 305.631C335.521 300.23 260.519 295.851 168 295.851C75.4807 295.851 0.479004 300.23 0.479004 305.631C0.479004 311.033 75.4807 315.412 168 315.412Z" fill="#F5F5F5"/>
<path d="M167.965 257.947H45.2772L38.564 60.6355H161.252L167.965 257.947Z" fill="#5EC401"/>
<path d="M174.091 251.821H51.4031L44.6812 54.5097H167.369L174.091 251.821Z" fill="#5EC401"/>
<path opacity="0.3" d="M174.091 251.821H51.4031L44.6812 54.5097H167.369L174.091 251.821Z" fill="white"/>
<path d="M132.984 135.703C146.121 122.34 145.562 100.489 131.736 86.898C117.91 73.3066 96.0528 73.1215 82.9164 86.4846C69.78 99.8476 70.3389 121.698 84.1647 135.29C97.9906 148.881 119.848 149.066 132.984 135.703Z" fill="#5EC401"/>
<path d="M136.438 111.102C136.615 115.803 135.589 120.472 133.457 124.667C131.157 129.187 127.642 132.976 123.308 135.61C118.974 138.244 113.991 139.619 108.92 139.579C103.729 139.551 98.6365 138.159 94.1538 135.541C89.6711 132.924 85.9555 129.173 83.3798 124.667C80.9782 120.537 79.6365 115.876 79.4745 111.102C79.3151 107.4 79.9101 103.704 81.2233 100.239C82.5364 96.7734 84.5404 93.6114 87.1134 90.9447C89.6863 88.278 92.7746 86.1622 96.1906 84.7259C99.6065 83.2897 103.279 82.5629 106.984 82.5897C114.618 82.6437 121.937 85.6363 127.422 90.9459C132.907 96.2555 136.136 103.474 136.438 111.102Z" fill="white"/>
<path opacity="0.6" d="M133.44 124.667C131.139 129.187 127.625 132.976 123.29 135.61C118.956 138.244 113.974 139.619 108.902 139.579C103.711 139.551 98.6191 138.159 94.1363 135.541C89.6536 132.924 85.938 129.173 83.3623 124.667C90.6693 119.685 99.3156 117.037 108.159 117.072C117.145 117.091 125.931 119.731 133.44 124.667Z" fill="#5EC401"/>
<path opacity="0.6" d="M116.827 110.391C121.657 105.478 121.452 97.4428 116.368 92.4451C111.284 87.4474 103.247 87.3794 98.4166 92.2931C93.5862 97.2069 93.7917 105.242 98.8756 110.239C103.959 115.237 111.997 115.305 116.827 110.391Z" fill="#5EC401"/>
<path d="M149.441 180.369H71.1799L70.6528 164.817H148.914L149.441 180.369Z" fill="white"/>
<path d="M150.392 208.163H72.1218L71.5947 192.611H149.864L150.392 208.163Z" fill="white"/>
<path d="M120.186 194.754L101.325 197.346C101.145 197.367 100.971 197.424 100.814 197.515C100.658 197.606 100.522 197.728 100.414 197.874C100.307 198.021 100.232 198.187 100.192 198.364C100.152 198.541 100.15 198.724 100.184 198.901L102.664 211.542C102.745 211.913 102.962 212.24 103.272 212.459C103.582 212.678 103.963 212.773 104.34 212.725L123.201 210.133C123.381 210.111 123.554 210.051 123.709 209.959C123.865 209.867 124 209.744 124.106 209.597C124.212 209.45 124.287 209.284 124.326 209.107C124.365 208.93 124.368 208.747 124.333 208.57L121.862 195.929C121.781 195.559 121.563 195.233 121.253 195.015C120.943 194.797 120.562 194.704 120.186 194.754ZM114.769 207.559L111.313 208.017L110.976 203.939C110.62 203.785 110.306 203.547 110.061 203.246C109.815 202.946 109.646 202.59 109.567 202.211C109.504 201.916 109.503 201.612 109.564 201.317C109.626 201.023 109.748 200.744 109.924 200.5C110.1 200.256 110.325 200.051 110.585 199.899C110.845 199.747 111.134 199.652 111.434 199.619C112.047 199.54 112.668 199.694 113.174 200.05C113.679 200.407 114.033 200.941 114.164 201.545C114.239 201.91 114.216 202.289 114.097 202.642C113.979 202.996 113.769 203.312 113.49 203.558L114.769 207.559Z" fill="#5EC401"/>
<path d="M118.32 194.072C117.986 194.114 117.649 194.03 117.374 193.837C117.099 193.644 116.906 193.354 116.834 193.026L116.592 191.791C116.246 190.105 115.301 188.601 113.932 187.559C112.562 186.516 110.861 186.006 109.144 186.123C108.277 186.172 107.432 186.408 106.664 186.813C105.897 187.218 105.225 187.784 104.696 188.471C104.167 189.159 103.791 189.953 103.596 190.798C103.4 191.644 103.389 192.521 103.563 193.372L103.839 194.797C103.871 194.955 103.87 195.118 103.836 195.276C103.801 195.433 103.734 195.582 103.639 195.712C103.544 195.842 103.423 195.951 103.283 196.032C103.143 196.112 102.988 196.163 102.828 196.18C102.494 196.226 102.155 196.144 101.879 195.95C101.603 195.756 101.411 195.465 101.342 195.134L101.109 193.933C100.872 192.811 100.864 191.652 101.086 190.527C101.308 189.401 101.755 188.332 102.401 187.384C103.046 186.436 103.877 185.628 104.843 185.009C105.808 184.389 106.89 183.972 108.021 183.781C110.474 183.369 112.991 183.918 115.05 185.313C117.109 186.708 118.552 188.842 119.08 191.272L119.356 192.689C119.389 192.849 119.387 193.014 119.351 193.173C119.315 193.332 119.246 193.482 119.148 193.613C119.05 193.743 118.925 193.852 118.783 193.931C118.64 194.01 118.482 194.058 118.32 194.072Z" fill="#5EC401"/>
<path d="M137.475 229.945H86.5245L86.1875 219.819H137.129L137.475 229.945Z" fill="#5EC401"/>
<path d="M112.894 172.593C112.909 172.962 112.849 173.331 112.718 173.676C112.586 174.022 112.386 174.337 112.129 174.602C111.872 174.868 111.564 175.079 111.223 175.222C110.882 175.365 110.516 175.438 110.146 175.435C109.384 175.429 108.654 175.131 108.106 174.602C107.557 174.073 107.233 173.354 107.2 172.593C107.185 172.223 107.245 171.855 107.376 171.509C107.508 171.164 107.708 170.849 107.965 170.583C108.222 170.317 108.53 170.106 108.871 169.963C109.212 169.82 109.578 169.747 109.948 169.75C110.71 169.754 111.442 170.051 111.99 170.581C112.539 171.11 112.863 171.831 112.894 172.593Z" fill="#263238"/>
<path d="M100.608 172.593C100.624 172.962 100.565 173.331 100.434 173.677C100.303 174.023 100.103 174.339 99.8458 174.605C99.5887 174.871 99.28 175.082 98.9386 175.225C98.5972 175.367 98.2303 175.439 97.8603 175.435C97.0994 175.429 96.3699 175.131 95.823 174.601C95.2761 174.072 94.9538 173.353 94.9227 172.593C94.9075 172.223 94.9675 171.855 95.0989 171.509C95.2304 171.164 95.4306 170.849 95.6875 170.583C95.9444 170.317 96.2526 170.106 96.5935 169.963C96.9343 169.82 97.3006 169.747 97.6702 169.75C98.4319 169.754 99.1625 170.052 99.7099 170.581C100.257 171.111 100.579 171.832 100.608 172.593Z" fill="#263238"/>
<path d="M88.3993 172.593C88.4146 172.962 88.3546 173.331 88.2232 173.676C88.0917 174.022 87.8914 174.337 87.6345 174.602C87.3776 174.868 87.0694 175.079 86.7286 175.222C86.3878 175.365 86.0215 175.438 85.6518 175.435C84.8902 175.431 84.1595 175.133 83.6122 174.604C83.0649 174.074 82.7432 173.354 82.7142 172.593C82.699 172.223 82.759 171.855 82.8904 171.509C83.0219 171.164 83.2221 170.849 83.479 170.583C83.7359 170.317 84.0442 170.106 84.385 169.963C84.7258 169.82 85.0921 169.747 85.4618 169.75C86.2234 169.754 86.9541 170.052 87.5014 170.581C88.0487 171.111 88.3704 171.832 88.3993 172.593Z" fill="#263238"/>
<path d="M125.137 172.593C125.152 172.962 125.092 173.331 124.961 173.676C124.829 174.022 124.629 174.337 124.372 174.603C124.115 174.868 123.807 175.079 123.466 175.222C123.125 175.365 122.759 175.438 122.389 175.435C121.628 175.431 120.897 175.133 120.35 174.604C119.802 174.074 119.481 173.354 119.452 172.593C119.439 172.224 119.501 171.857 119.634 171.514C119.767 171.17 119.969 170.857 120.227 170.594C120.484 170.331 120.793 170.122 121.133 169.982C121.474 169.841 121.84 169.771 122.208 169.776C122.964 169.782 123.689 170.077 124.234 170.601C124.778 171.125 125.102 171.838 125.137 172.593Z" fill="#263238"/>
<path d="M137.38 172.593C137.396 172.962 137.337 173.331 137.206 173.677C137.075 174.023 136.875 174.339 136.618 174.605C136.361 174.871 136.052 175.082 135.711 175.225C135.369 175.367 135.002 175.439 134.632 175.435C133.871 175.429 133.142 175.131 132.595 174.601C132.048 174.072 131.726 173.353 131.695 172.593C131.679 172.223 131.739 171.855 131.871 171.509C132.002 171.164 132.203 170.849 132.46 170.583C132.716 170.317 133.025 170.106 133.365 169.963C133.706 169.82 134.073 169.747 134.442 169.75C135.204 169.754 135.935 170.052 136.482 170.581C137.029 171.111 137.351 171.832 137.38 172.593Z" fill="#263238"/>
<path d="M240.498 96.5779C241.647 98.4269 242.606 100.189 243.591 102.03C244.576 103.87 245.466 105.719 246.339 107.611C248.119 111.443 249.593 115.409 250.745 119.474C250.901 119.984 251.013 120.528 251.143 121.055L251.333 121.859L251.428 122.256L251.54 122.913C251.735 124.402 251.644 125.915 251.272 127.371C250.676 129.631 249.769 131.797 248.577 133.808C246.444 137.461 243.867 140.837 240.904 143.856L237.267 141.108C239.093 137.752 240.717 134.29 242.131 130.74C242.761 129.177 243.205 127.544 243.453 125.876C243.533 125.367 243.509 124.847 243.384 124.347L243.038 123.293C242.9 122.861 242.771 122.429 242.606 121.988C241.292 118.424 239.772 114.939 238.053 111.551C236.325 108.095 234.467 104.639 232.61 101.339L240.498 96.5779Z" fill="#FF8B7B"/>
<path d="M238.192 139.908L234.217 142.007L238.779 147.347C238.779 147.347 241.63 145.42 241.76 142.482L238.192 139.908Z" fill="#FF8B7B"/>
<path d="M228.886 145.299L233.768 149.178L238.779 147.347L234.217 142.007L228.886 145.299Z" fill="#FF8B7B"/>
<path d="M212.194 68.3078C212.099 68.7917 211.762 69.1287 211.451 69.0682C211.14 69.0077 210.958 68.5584 211.053 68.0832C211.148 67.608 211.485 67.2192 211.805 67.3229C212.125 67.4266 212.289 67.824 212.194 68.3078Z" fill="#263238"/>
<path d="M211.805 69.1373C210.935 70.4906 209.882 71.7175 208.677 72.7834C208.962 73.0783 209.307 73.3083 209.689 73.4574C210.07 73.6065 210.48 73.6713 210.889 73.6474L211.805 69.1373Z" fill="#FF5652"/>
<path d="M210.25 86.089V80.4211L217.749 81.2851C217.749 81.2851 217.628 86.1581 213.429 87.5923L210.25 86.089Z" fill="#FF8B7B"/>
<path d="M212.41 76.343L217.689 77.8637L217.784 81.3283L210.284 80.4211L212.41 76.343Z" fill="#FF8B7B"/>
<path opacity="0.2" d="M217.689 77.8637L212.41 76.343L211.381 78.3129C211.437 79.8651 211.923 81.3715 212.783 82.6648C213.643 83.9581 214.845 84.9878 216.254 85.6396C217.161 84.3727 217.691 82.8751 217.784 81.3197L217.689 77.8637Z" fill="black"/>
<path d="M214.492 66.001C214.547 65.9995 214.601 65.9824 214.647 65.9516C214.693 65.9208 214.73 65.8776 214.752 65.8271C214.775 65.7765 214.783 65.7205 214.775 65.6657C214.767 65.6108 214.744 65.5593 214.708 65.5171C214.405 65.1744 214.023 64.9093 213.597 64.744C213.17 64.5786 212.709 64.5178 212.254 64.5667C212.18 64.5794 212.114 64.6211 212.07 64.6826C212.026 64.7442 212.009 64.8206 212.021 64.895C212.034 64.97 212.075 65.0371 212.136 65.0823C212.198 65.1274 212.274 65.147 212.349 65.137C212.71 65.1016 213.074 65.1529 213.41 65.2867C213.747 65.4204 214.047 65.6328 214.285 65.9059C214.311 65.9348 214.343 65.9581 214.379 65.9744C214.414 65.9907 214.453 65.9997 214.492 66.001Z" fill="#263238"/>
<path d="M225.534 77.0515C224.67 81.5011 224.134 87.6615 227.262 90.625C227.262 90.625 226.052 95.1351 217.758 95.1351C208.677 95.1351 213.395 91.1779 213.395 91.1779C217.171 90.0029 217.136 85.7088 216.272 82.2528L225.534 77.0515Z" fill="#FF8B7B"/>
<path d="M228.947 93.5971C229.759 92.4567 229.724 88.8365 228.86 88.1971C227.469 87.169 221.499 86.927 213.473 88.776C214.337 92.2838 212.479 94.1155 212.479 94.1155L228.947 93.5971Z" fill="#F37A20"/>
<path d="M255.955 298.719C255.709 298.806 255.447 298.843 255.186 298.828C254.925 298.813 254.67 298.747 254.435 298.633C254.346 298.55 254.284 298.441 254.26 298.322C254.235 298.203 254.248 298.079 254.296 297.968C254.324 297.874 254.371 297.788 254.435 297.715C254.499 297.642 254.579 297.583 254.668 297.544C255.489 297.147 257.372 297.916 257.459 297.95C257.484 297.961 257.506 297.979 257.522 298.002C257.537 298.025 257.545 298.052 257.545 298.08C257.545 298.108 257.538 298.135 257.524 298.159C257.51 298.183 257.491 298.204 257.467 298.218C256.98 298.432 256.474 298.6 255.955 298.719ZM254.962 297.743C254.905 297.756 254.85 297.777 254.798 297.803C254.744 297.823 254.695 297.855 254.656 297.897C254.617 297.939 254.589 297.99 254.573 298.045C254.495 298.305 254.573 298.391 254.625 298.417C254.953 298.693 256.163 298.417 257.018 298.097C256.367 297.828 255.665 297.707 254.962 297.743Z" fill="#F37A20"/>
<path d="M257.433 298.227H257.364C256.672 298.028 255.204 296.983 255.186 296.3C255.186 296.192 255.222 296.086 255.29 296.001C255.357 295.916 255.452 295.857 255.558 295.834C255.66 295.795 255.77 295.78 255.879 295.789C255.988 295.798 256.094 295.831 256.189 295.885C257.001 296.3 257.519 297.976 257.536 298.054C257.548 298.075 257.555 298.099 257.555 298.123C257.555 298.147 257.548 298.171 257.536 298.192C257.523 298.206 257.507 298.216 257.489 298.222C257.471 298.228 257.451 298.23 257.433 298.227ZM255.705 296.076H255.636C255.463 296.136 255.463 296.222 255.463 296.266C255.463 296.672 256.448 297.492 257.191 297.821C257.009 297.337 256.612 296.378 256.085 296.093C255.968 296.04 255.835 296.033 255.713 296.076H255.705Z" fill="#F37A20"/>
<path d="M211.079 299.739C210.302 299.739 209.55 299.627 209.299 299.281C209.234 299.189 209.199 299.079 209.199 298.966C209.199 298.853 209.234 298.742 209.299 298.65C209.349 298.566 209.415 298.492 209.494 298.434C209.572 298.376 209.662 298.335 209.757 298.313C210.768 298.037 212.894 299.246 212.98 299.298C213.007 299.311 213.028 299.333 213.04 299.359C213.053 299.386 213.056 299.416 213.049 299.445C213.046 299.475 213.033 299.502 213.013 299.524C212.993 299.546 212.966 299.561 212.937 299.566C212.324 299.678 211.702 299.736 211.079 299.739ZM210.12 298.555C210.029 298.54 209.935 298.54 209.844 298.555C209.785 298.567 209.73 298.591 209.681 298.625C209.632 298.659 209.59 298.703 209.559 298.754C209.455 298.935 209.498 299.022 209.559 299.074C209.844 299.471 211.373 299.48 212.505 299.315C211.766 298.912 210.956 298.654 210.12 298.555Z" fill="#F37A20"/>
<path d="M212.928 299.566H212.868C212.133 299.238 210.682 297.924 210.794 297.233C210.794 297.069 210.932 296.87 211.33 296.836C211.472 296.819 211.616 296.832 211.753 296.874C211.889 296.915 212.016 296.985 212.125 297.078C212.678 297.74 213.011 298.559 213.075 299.419C213.075 299.444 213.069 299.468 213.059 299.491C213.049 299.513 213.033 299.533 213.015 299.549C212.988 299.562 212.958 299.568 212.928 299.566ZM211.442 297.104H211.356C211.097 297.104 211.079 297.225 211.079 297.259C211.01 297.674 211.995 298.711 212.747 299.16C212.681 298.467 212.4 297.811 211.943 297.285C211.801 297.164 211.62 297.1 211.434 297.104H211.442Z" fill="#F37A20"/>
<path d="M219.598 299.428H213.524L212.919 285.353H218.993L219.598 299.428Z" fill="#FF8B7B"/>
<path d="M264.206 296.611L258.271 297.899L252.301 284.792L258.245 283.504L264.206 296.611Z" fill="#FF8B7B"/>
<path d="M257.692 297.302L264.371 295.86C264.487 295.835 264.609 295.85 264.716 295.904C264.823 295.957 264.908 296.045 264.958 296.153L267.274 301.182C267.335 301.303 267.367 301.438 267.367 301.575C267.366 301.711 267.334 301.845 267.271 301.967C267.209 302.088 267.119 302.193 267.008 302.273C266.897 302.353 266.769 302.405 266.634 302.426C264.302 302.884 263.135 302.996 260.206 303.627C258.4 304.024 254.322 305.018 251.825 305.554C249.328 306.089 248.473 303.696 249.449 303.255C253.813 301.259 255.627 299.506 256.811 297.873C257.025 297.581 257.338 297.378 257.692 297.302Z" fill="#263238"/>
<path d="M213.568 298.719H220.203C220.323 298.72 220.44 298.761 220.534 298.837C220.628 298.912 220.694 299.017 220.721 299.134L221.922 304.534C221.958 304.665 221.962 304.802 221.934 304.934C221.907 305.066 221.849 305.19 221.765 305.296C221.681 305.402 221.573 305.487 221.451 305.544C221.328 305.6 221.193 305.627 221.058 305.623C218.665 305.58 215.209 305.441 212.202 305.441C208.677 305.441 205.645 305.631 201.515 305.631C199.018 305.631 198.327 303.108 199.372 302.875C204.124 301.838 208.012 301.726 212.116 299.195C212.547 298.906 213.049 298.741 213.568 298.719Z" fill="#263238"/>
<path d="M238.131 92.016C243.825 93.3206 248.499 107.862 248.499 107.862L237.12 116.562C234.167 113.404 232.083 109.534 231.072 105.33C229.059 97.7098 232.308 90.6682 238.131 92.016Z" fill="#236CD9"/>
<path opacity="0.4" d="M238.131 92.016C243.825 93.3206 248.499 107.862 248.499 107.862L237.12 116.562C234.167 113.404 232.083 109.534 231.072 105.33C229.059 97.7098 232.308 90.6682 238.131 92.016Z" fill="black"/>
<path d="M208.176 109.356C206.759 110.886 205.342 112.251 203.856 113.676C203.122 114.368 202.379 115.059 201.618 115.724L200.469 116.735L200.184 116.986L199.692 117.383C199.185 117.788 198.623 118.12 198.024 118.368C197.357 118.651 196.64 118.798 195.916 118.8C195.297 118.803 194.682 118.694 194.102 118.48C193.457 118.235 192.87 117.862 192.374 117.383C191.741 116.764 191.277 115.994 191.026 115.145C190.894 114.727 190.81 114.295 190.775 113.858C190.73 113.346 190.73 112.832 190.775 112.32C190.818 111.905 190.87 111.542 190.939 111.205C191.176 110.027 191.511 108.871 191.942 107.749C192.33 106.683 192.777 105.639 193.281 104.622C193.834 103.524 194.361 102.721 194.888 101.805C197.028 98.2983 199.471 94.9852 202.189 91.9037C204.879 88.8403 207.843 86.0292 211.045 83.5056L214.224 86.7802C211.995 89.7696 209.8 92.975 207.77 96.1286C205.749 99.2643 203.903 102.509 202.24 105.849C201.869 106.661 201.376 107.577 201.143 108.233C200.834 108.996 200.566 109.775 200.34 110.566C200.122 111.279 199.957 112.006 199.847 112.743C199.841 112.858 199.841 112.974 199.847 113.089C199.847 113.158 199.847 113.193 199.847 113.011C199.833 112.817 199.795 112.626 199.735 112.441C199.548 111.828 199.206 111.275 198.741 110.834C198.328 110.454 197.843 110.161 197.316 109.97C196.852 109.794 196.36 109.703 195.864 109.702C195.387 109.696 194.914 109.787 194.473 109.97C194.324 110.031 194.179 110.103 194.041 110.186L194.369 109.883L195.415 108.933L197.48 106.998C198.845 105.71 200.219 104.337 201.515 103.058L208.176 109.356Z" fill="#FF8B7B"/>
<path opacity="0.2" d="M233.249 102.695C236.343 105.754 237.353 111.335 237.569 116.173L237.068 116.562C234.115 113.404 232.031 109.534 231.02 105.33C230.908 104.881 230.804 104.466 230.727 103.974L233.249 102.695Z" fill="black"/>
<path d="M202.137 98.064C200.892 104.63 200.115 118.117 203.718 144.815H236.256C236.481 139.83 233.344 115.482 238.157 91.9728C234.561 91.2823 230.925 90.8235 227.27 90.599C222.666 90.335 218.051 90.335 213.446 90.599C211.926 90.7373 210.422 90.9619 209.126 91.1952C207.403 91.4976 205.812 92.3162 204.563 93.5427C203.315 94.7693 202.469 96.3459 202.137 98.064Z" fill="#236CD9"/>
<path opacity="0.4" d="M202.137 98.064C200.892 104.63 200.115 118.117 203.718 144.815H236.256C236.481 139.83 233.344 115.482 238.157 91.9728C234.561 91.2823 230.925 90.8235 227.27 90.599C222.666 90.335 218.051 90.335 213.446 90.599C211.926 90.7373 210.422 90.9619 209.126 91.1952C207.403 91.4976 205.812 92.3162 204.563 93.5427C203.315 94.7693 202.469 96.3459 202.137 98.064Z" fill="black"/>
<path opacity="0.2" d="M207.114 107.801L201.238 106.393C201.057 109.953 201.04 114.359 201.299 119.811C204.003 116.735 207.459 111.931 207.114 107.801Z" fill="black"/>
<path opacity="0.2" d="M212.919 285.353L213.23 292.611H219.313L219.002 285.353H212.919Z" fill="black"/>
<path opacity="0.2" d="M258.245 283.504L252.301 284.792L255.376 291.548L261.321 290.261L258.245 283.504Z" fill="black"/>
<path d="M228.419 70.5542C226.864 76.3776 226.242 79.8682 222.648 82.2874C217.248 85.968 210.509 81.7517 210.336 75.6C210.146 70.0445 212.729 61.4477 218.976 60.2726C220.349 60.015 221.764 60.1112 223.09 60.5521C224.415 60.993 225.606 61.7641 226.551 62.7927C227.496 63.8214 228.163 65.0737 228.49 66.4316C228.817 67.7895 228.793 69.2083 228.419 70.5542Z" fill="#FF8B7B"/>
<path d="M214.786 70.7702C214.492 69.9926 213.153 63.9705 214.414 62.4067C215.676 60.8429 230.061 61.9747 232.187 64.0656C235.721 67.5216 233.267 70.632 229.405 74.6323C226.502 77.639 226.389 81.0259 224.921 81.5443C222.329 82.4083 218.371 81.5962 217.577 78.8573C216.782 76.1184 214.786 70.7702 214.786 70.7702Z" fill="#263238"/>
<path d="M230.442 57.2141C225.361 55.0541 215.831 57.4474 210.682 56.2032C210.616 58.118 211.246 59.9918 212.455 61.4783C213.663 62.9649 215.369 63.9637 217.257 64.2902C221.529 65.1043 225.868 65.5065 230.217 65.4912C235.868 65.232 234.762 59.0544 230.442 57.2141Z" fill="#263238"/>
<path d="M231.236 64.247C233.092 64.4297 234.961 64.0726 236.619 63.2189C237.569 65.5171 232.342 66.1478 231.236 64.247Z" fill="#263238"/>
<path d="M217.551 71.0122C217.434 72.5105 216.827 73.9287 215.823 75.047C214.492 76.5072 213.11 75.5914 212.876 73.8202C212.669 72.2131 213.101 69.5002 214.725 68.7226C216.35 67.945 217.663 69.2064 217.551 71.0122Z" fill="#FF8B7B"/>
<path d="M215.252 144.841C215.252 144.841 222.164 191.281 225.94 208.682C230.079 227.733 252.318 290.762 252.318 290.762L263.196 288.403C263.196 288.403 247.644 237.03 244.188 210.393C241.509 189.933 236.248 144.824 236.248 144.824L215.252 144.841Z" fill="#5EC401"/>
<path d="M249.709 287.142C249.665 287.142 251.739 291.082 251.739 291.082L263.973 288.429L262.945 284.748L249.709 287.142Z" fill="#263238"/>
<path opacity="0.3" d="M219.615 161.387C227.59 162.95 226.743 192.689 225.784 207.991C223.486 197.173 220.117 176.368 217.818 161.603C218.375 161.328 219.009 161.251 219.615 161.387Z" fill="black"/>
<path d="M203.718 144.841C203.718 144.841 202.854 190.279 203.545 208.777C204.236 228.053 210.967 291.168 210.967 291.168H221.265C221.265 291.168 221.637 229.176 222.129 210.246C222.631 189.613 225.119 144.806 225.119 144.806L203.718 144.841Z" fill="#5EC401"/>
<path d="M208.988 287.107C208.937 287.107 209.567 291.375 209.567 291.375H222.087L222.432 287.565L208.988 287.107Z" fill="#263238"/>
<path d="M214.872 100.086C217.784 107.94 200.668 117.193 200.668 117.193L193.255 107.689C193.255 107.689 198.24 97.8221 204.288 93.3811C211.762 87.9034 212.652 94.1069 214.872 100.086Z" fill="#236CD9"/>
<path opacity="0.4" d="M214.872 100.086C217.784 107.94 200.668 117.193 200.668 117.193L193.255 107.689C193.255 107.689 198.24 97.8221 204.288 93.3811C211.762 87.9034 212.652 94.1069 214.872 100.086Z" fill="black"/>
<path d="M281.936 40.4611C299.157 40.4611 313.118 31.5641 313.118 20.5891C313.118 9.61411 299.157 0.71711 281.936 0.71711C264.715 0.71711 250.754 9.61411 250.754 20.5891C250.754 31.5641 264.715 40.4611 281.936 40.4611Z" fill="#90B6E1"/>
<path d="M270.687 30.5942C268.632 30.5876 266.646 29.8573 265.077 28.5315C263.508 27.2058 262.456 25.3695 262.107 23.3453C261.763 21.1527 262.258 18.911 263.492 17.0666C264.727 15.2222 266.61 13.9103 268.768 13.392C270.539 12.9839 272.394 13.1412 274.071 13.8417C275.747 14.5422 277.163 15.7507 278.117 17.2973L298.136 13.1673C298.905 12.9989 299.71 13.1268 300.389 13.5256C301.068 13.9244 301.572 14.5648 301.799 15.3187C301.904 15.7151 301.927 16.1287 301.866 16.5342C301.806 16.9397 301.663 17.3286 301.447 17.6772C301.231 18.0257 300.947 18.3265 300.61 18.5613C300.274 18.7961 299.894 18.9598 299.492 19.0425L298.974 19.1462C298.897 19.16 298.824 19.1914 298.761 19.2378C298.698 19.2843 298.647 19.3446 298.611 19.4141C298.579 19.4846 298.563 19.5612 298.563 19.6387C298.563 19.7162 298.579 19.7928 298.611 19.8633L298.965 20.7792C299.084 21.076 299.095 21.405 298.998 21.7094C298.9 22.0138 298.699 22.2745 298.43 22.4467C298.217 22.5779 298.038 22.7559 297.904 22.967C297.771 23.1781 297.688 23.4168 297.661 23.6649C297.635 23.9498 297.52 24.2193 297.333 24.435C297.145 24.6506 296.894 24.8015 296.615 24.8659L296.209 24.9523C295.928 25.0043 295.637 24.9654 295.379 24.8411C295.121 24.7168 294.91 24.5137 294.775 24.2611C294.596 23.9598 294.327 23.7219 294.006 23.5806C293.685 23.4394 293.328 23.4018 292.984 23.4731C292.641 23.5444 292.328 23.7211 292.09 23.9785C291.852 24.236 291.7 24.5613 291.656 24.9091C291.632 25.1921 291.518 25.4601 291.332 25.6745C291.146 25.8888 290.896 26.0383 290.619 26.1014L290.213 26.1878C289.932 26.2385 289.641 26.1989 289.384 26.0748C289.126 25.9506 288.914 25.7483 288.779 25.4966C288.649 25.2823 288.475 25.0987 288.268 24.9585C288.06 24.8183 287.825 24.7248 287.578 24.6845C287.246 24.6445 286.939 24.4846 286.717 24.2348C286.494 23.9851 286.37 23.6626 286.368 23.328V22.343C286.365 22.266 286.345 22.1906 286.309 22.122C286.274 22.0534 286.224 21.9933 286.163 21.9457C286.103 21.8982 286.032 21.8642 285.957 21.8463C285.882 21.8284 285.804 21.8269 285.729 21.8419L279.344 23.1552C279.083 24.9241 278.284 26.5698 277.055 27.8684C275.826 29.167 274.227 30.0554 272.475 30.4128C271.886 30.5331 271.287 30.5939 270.687 30.5942ZM268.959 14.1782C266.999 14.636 265.285 15.8192 264.163 17.4897C263.041 19.1602 262.593 21.1938 262.911 23.1811C263.25 25.03 264.241 26.6961 265.702 27.8783C267.164 29.0604 269 29.6804 270.879 29.6261C272.758 29.5718 274.556 28.8469 275.947 27.5823C277.338 26.3178 278.23 24.5972 278.463 22.7318V22.4208L285.504 20.9952C285.706 20.9463 285.916 20.943 286.12 20.9856C286.323 21.0282 286.515 21.1155 286.68 21.2412C286.846 21.367 286.981 21.528 287.076 21.7126C287.172 21.8972 287.225 22.1008 287.232 22.3085V23.2934C287.234 23.4107 287.276 23.5237 287.352 23.6134C287.427 23.7031 287.532 23.7641 287.647 23.7859C288.025 23.84 288.385 23.9794 288.701 24.1934C289.017 24.4075 289.28 24.6907 289.47 25.0214C289.516 25.1147 289.589 25.1914 289.681 25.2409C289.772 25.2904 289.877 25.3103 289.98 25.2979L290.377 25.2115C290.478 25.1856 290.568 25.1279 290.633 25.0469C290.698 24.966 290.736 24.8662 290.74 24.7622C290.794 24.2244 291.018 23.7178 291.38 23.3156C291.741 22.9135 292.221 22.6366 292.75 22.525C293.279 22.4135 293.83 22.473 294.322 22.695C294.815 22.917 295.225 23.2899 295.492 23.76C295.536 23.8525 295.608 23.9289 295.698 23.9785C295.788 24.0281 295.891 24.0483 295.993 24.0365L296.408 23.9501C296.507 23.9226 296.595 23.8642 296.658 23.7834C296.722 23.7026 296.758 23.6036 296.762 23.5008C296.805 23.1214 296.934 22.7569 297.139 22.4349C297.344 22.113 297.62 21.8422 297.946 21.6432C298.041 21.5745 298.11 21.476 298.143 21.3633C298.176 21.2506 298.171 21.1302 298.127 21.0211L297.773 20.1053C297.7 19.9165 297.669 19.7139 297.682 19.5118C297.695 19.3098 297.752 19.113 297.849 18.9352C297.946 18.7575 298.081 18.6031 298.244 18.4829C298.407 18.3626 298.594 18.2794 298.792 18.239L299.319 18.1267C299.605 18.0659 299.875 17.9482 300.113 17.7806C300.352 17.613 300.555 17.399 300.709 17.1513C300.863 16.9037 300.965 16.6276 301.01 16.3394C301.055 16.0512 301.041 15.757 300.97 15.4742C300.801 14.9305 300.433 14.4707 299.939 14.187C299.446 13.9034 298.863 13.8169 298.309 13.9449L277.728 18.2217L277.573 17.9539C276.746 16.4819 275.462 15.319 273.916 14.641C272.37 13.9629 270.645 13.8066 269.002 14.1955L268.959 14.1782ZM270.687 27.3801C269.613 27.3921 268.56 27.0919 267.654 26.5161C266.583 25.8128 265.788 24.7596 265.406 23.5361C265.025 22.3126 265.079 20.9946 265.56 19.8067C266.042 18.6189 266.92 17.6347 268.046 17.022C269.172 16.4093 270.475 16.2061 271.734 16.4468C272.993 16.6876 274.129 17.3575 274.949 18.3424C275.769 19.3273 276.223 20.5661 276.231 21.8478C276.24 23.1294 275.805 24.3744 274.998 25.3707C274.192 26.3669 273.065 27.0527 271.81 27.311C271.442 27.3776 271.069 27.4065 270.695 27.3974L270.687 27.3801ZM270.687 17.1763C270.365 17.1781 270.044 17.21 269.727 17.2713C269.126 17.3996 268.555 17.6451 268.048 17.9939C267.541 18.3427 267.107 18.7879 266.772 19.3042C266.437 19.8205 266.207 20.3977 266.096 21.0028C265.984 21.608 265.992 22.2293 266.12 22.8312C266.249 23.4331 266.494 24.0039 266.843 24.5109C267.192 25.0179 267.637 25.4513 268.153 25.7863C268.669 26.1212 269.247 26.3512 269.852 26.4631C270.457 26.575 271.078 26.5666 271.68 26.4384C272.584 26.2503 273.411 25.7989 274.059 25.1411C274.706 24.4833 275.144 23.6485 275.318 22.742C275.492 21.8355 275.393 20.8979 275.035 20.0474C274.677 19.1968 274.074 18.4714 273.304 17.9625C272.54 17.4538 271.64 17.186 270.721 17.1936L270.687 17.1763Z" fill="white"/>
<path opacity="0.6" d="M256.56 52.1165C262.22 52.1165 266.807 49.1921 266.807 45.5846C266.807 41.9772 262.22 39.0528 256.56 39.0528C250.901 39.0528 246.313 41.9772 246.313 45.5846C246.313 49.1921 250.901 52.1165 256.56 52.1165Z" fill="#90B6E1"/>
<path opacity="0.3" d="M240.257 54.7949C242.58 54.7949 244.464 53.5957 244.464 52.1165C244.464 50.6372 242.58 49.4381 240.257 49.4381C237.933 49.4381 236.049 50.6372 236.049 52.1165C236.049 53.5957 237.933 54.7949 240.257 54.7949Z" fill="#90B6E1"/>
</svg>
