<svg width="324" height="249" viewBox="0 0 324 249" fill="none" xmlns="http://www.w3.org/2000/svg">
<path d="M101.464 7.42874C92.9919 11.9351 89.7769 22.4571 94.2843 30.9305L125.254 89.1534C129.761 97.6257 140.283 100.841 148.756 96.3344C157.228 91.8269 160.443 81.3049 155.937 72.8326L124.967 14.6097C120.46 6.13632 109.938 2.92129 101.464 7.42874Z" fill="#EAB875"/>
<path d="M155.937 72.8316L124.967 14.6097C120.459 6.13632 109.937 2.92129 101.464 7.42874C101.007 7.67227 100.568 7.93609 100.142 8.21273C107.072 5.40786 115.719 9.24453 119.982 17.2607L150.953 75.4826C155.217 83.4988 153.564 92.8139 147.366 96.9923C147.834 96.7937 148.299 96.5768 148.756 96.3333C157.228 91.8269 160.443 81.3049 155.937 72.8316V72.8316Z" fill="#C68D4E"/>
<path d="M123.559 52.7062C122.171 50.0957 115.794 50.7729 109.317 54.2175C108.612 54.5924 107.938 54.9855 107.294 55.3893L112.244 64.6936C112.939 64.3849 113.641 64.0453 114.346 63.6714C120.823 60.2257 124.948 55.3166 123.559 52.7062Z" fill="#FFF7AF"/>
<path d="M133.41 71.2262C132.022 68.6157 125.645 69.2929 119.168 72.7386C118.464 73.1125 117.79 73.5056 117.145 73.9093L122.095 83.2137C122.79 82.906 123.492 82.5664 124.197 82.1915C130.674 78.7457 134.799 73.8367 133.41 71.2262Z" fill="#FFF7AF"/>
<path d="M99.4654 35.6975C98.7604 36.0724 98.0865 36.4644 97.4424 36.8692L102.392 46.1736C103.087 45.8649 103.789 45.5252 104.493 45.1503C110.97 41.7056 115.096 36.7966 113.708 34.1861C112.319 31.5756 105.942 32.2517 99.4654 35.6975Z" fill="#FFF7AF"/>
<path d="M159.317 5.25726V17.0129C159.317 17.3611 159.599 17.6431 159.948 17.6431H177.229C177.577 17.6431 177.859 17.3611 177.859 17.0129V5.25726C177.859 2.35413 175.505 0 172.602 0H164.575C161.672 0 159.317 2.35413 159.317 5.25726V5.25726Z" fill="#ED5176"/>
<path d="M172.602 0H167.986C170.36 0 172.283 2.35413 172.283 5.25726V17.0129C172.283 17.3611 172.053 17.6431 171.769 17.6431H177.229C177.577 17.6431 177.858 17.3611 177.858 17.0129V5.25726C177.859 2.35413 175.505 0 172.602 0V0Z" fill="#BA365F"/>
<path d="M176.331 25.0719V17.6431H160.846V25.0719C160.846 26.9336 159.906 28.6725 158.341 29.6829C155.653 31.4186 151.616 34.2694 150.488 36.3885C145.419 45.9151 147.968 79.5511 147.968 79.5511H189.208C189.208 79.5511 191.756 45.9151 186.688 36.3885C185.56 34.2694 181.523 31.4186 178.834 29.6829C177.271 28.6725 176.331 26.9336 176.331 25.0719V25.0719Z" fill="#804C68"/>
<path d="M186.688 36.3885C185.561 34.2705 181.523 31.4197 178.834 29.6829C177.27 28.6736 176.33 26.9336 176.33 25.0719V17.6431H171.034V25.0719C171.034 26.9336 171.803 28.6725 173.081 29.6829C175.278 31.4186 178.579 34.2694 179.501 36.3885C183.643 45.9151 181.56 79.5511 181.56 79.5511H189.209C189.209 79.5511 191.756 45.9151 186.688 36.3885V36.3885Z" fill="#60364E"/>
<path d="M199.704 48.7584H173.885L166.13 58.506V104.243H207.458V58.506L199.704 48.7584Z" fill="#E9E9EA"/>
<path d="M199.704 48.7584H194.555L201.12 58.506V104.243H207.459V58.506L199.704 48.7584Z" fill="#C5C4CC"/>
<path d="M176.378 37.8284H197.211C198.588 37.8284 199.704 38.9435 199.704 40.3203V48.7584H173.886V40.3203C173.886 38.9435 175.001 37.8284 176.378 37.8284V37.8284Z" fill="#C8E7F7"/>
<path d="M197.211 37.8284H192.261C193.528 37.8284 194.554 38.8548 194.554 40.1216V48.7584H199.704V40.3203C199.704 38.9445 198.588 37.8284 197.211 37.8284Z" fill="#8CBCD6"/>
<path d="M147.541 57.2478C147.547 57.2435 147.551 57.2403 147.556 57.236C151.297 54.2229 151.313 54.209 160.16 47.0825C160.485 46.823 160.787 46.5271 161.059 46.1928C163.138 43.6453 162.758 39.8962 160.21 37.8177C157.663 35.7402 153.914 36.1205 151.835 38.6668C151.563 39.0012 151.333 39.3568 151.145 39.7264C145.939 49.8244 145.929 49.8436 143.728 54.1128C143.725 54.1182 143.722 54.1235 143.72 54.1289C143.719 54.1299 143.719 54.131 143.718 54.1321C143.182 55.1681 143.425 56.4723 144.365 57.2392C145.305 58.0061 146.63 57.9826 147.538 57.2488C147.539 57.2488 147.54 57.2488 147.541 57.2478Z" fill="#7FAB38"/>
<path d="M139.335 57.2478C139.33 57.2435 139.325 57.2403 139.32 57.236C135.58 54.2229 135.562 54.209 126.715 47.0825C126.392 46.823 126.089 46.5271 125.816 46.1928C123.738 43.6453 124.119 39.8962 126.666 37.8177C129.213 35.7402 132.963 36.1205 135.04 38.6668C135.314 39.0012 135.542 39.3568 135.731 39.7264C140.937 49.8244 140.948 49.8436 143.148 54.1128C143.151 54.1182 143.154 54.1235 143.157 54.1289C143.158 54.1299 143.158 54.131 143.158 54.1321C143.694 55.1681 143.452 56.4723 142.512 57.2392C141.572 58.0061 140.245 57.9826 139.337 57.2488C139.336 57.2488 139.335 57.2488 139.335 57.2478Z" fill="#7FAB38"/>
<path d="M147.232 55.4266C147.234 55.417 147.236 55.4074 147.238 55.3989C148.766 48.1699 148.773 48.1378 152.387 31.0416C152.521 30.4178 152.593 29.7716 152.593 29.1072C152.593 24.0507 148.494 19.9524 143.438 19.9524C138.382 19.9524 134.283 24.0507 134.283 29.1072C134.283 29.7716 134.356 30.4178 134.489 31.0416C138.104 48.1378 138.11 48.1699 139.639 55.3989C139.641 55.4074 139.642 55.417 139.644 55.4266C139.645 55.4277 139.645 55.4298 139.645 55.4309H139.646C140.016 57.1869 141.572 58.506 143.438 58.506C145.304 58.506 146.861 57.1869 147.231 55.4309C147.231 55.4298 147.232 55.4277 147.232 55.4266Z" fill="#AED559"/>
<path d="M158.757 70.4454C158.986 69.3762 159.111 68.2675 159.111 67.1289C159.111 58.4729 152.094 51.4554 143.438 51.4554C134.782 51.4554 127.764 58.4729 127.764 67.1289C127.764 68.2675 127.889 69.3762 128.12 70.4454C134.566 100.609 134.581 100.681 137.192 112.899C137.775 115.816 140.349 118.015 143.438 118.015C146.527 118.015 149.102 115.816 149.684 112.899C152.294 100.681 152.311 100.609 158.757 70.4454Z" fill="#FFCD34"/>
<path d="M143.438 51.4554C142.803 51.4554 142.181 51.4981 141.565 51.5707C147.679 52.4968 152.422 59.1063 152.422 67.1289C152.422 68.2675 152.323 69.3762 152.142 70.4454C147.072 100.609 147.06 100.681 145.006 112.898C144.645 115.199 143.306 117.048 141.566 117.73C142.158 117.911 142.786 118.015 143.438 118.015C146.527 118.015 149.102 115.816 149.684 112.898C152.295 100.681 152.311 100.609 158.757 70.4454C158.987 69.3762 159.111 68.2675 159.111 67.1289C159.111 58.4729 152.094 51.4554 143.438 51.4554V51.4554Z" fill="#E69012"/>
<path d="M105.941 83.2906L107.108 93.2689L107.98 100.721L111.811 133.463C112.246 137.19 115.404 140 119.156 140H200.862C204.614 140 207.771 137.19 208.207 133.463L214.076 83.2906H105.941Z" fill="#AED559"/>
<path d="M213.332 89.6597L214.076 83.2906H105.941L106.686 89.6597H213.332Z" fill="#7FAB38"/>
<path d="M207.035 83.2906L201.165 133.463C200.729 137.19 197.572 140 193.82 140H200.862C204.614 140 207.772 137.19 208.207 133.463L214.077 83.2906H207.035Z" fill="#7FAB38"/>
<path d="M98.2812 72.4876V79.3834C98.2812 81.541 100.031 83.2905 102.188 83.2905H217.83C219.988 83.2905 221.737 81.541 221.737 79.3834V72.4876C221.737 70.329 219.988 68.5794 217.83 68.5794H102.188C100.031 68.5794 98.2812 70.329 98.2812 72.4876V72.4876Z" fill="#90B6E1"/>
<path d="M217.83 68.5794H210.675C212.832 68.5794 214.582 70.329 214.582 72.4876V79.3834C214.582 81.541 212.832 83.2905 210.675 83.2905H217.83C219.988 83.2905 221.737 81.541 221.737 79.3834V72.4876C221.737 70.329 219.988 68.5794 217.83 68.5794V68.5794Z" fill="#5692D8"/>
<path d="M224.682 128.253C223.146 128.47 221.559 127.772 220.71 126.359L192.672 79.6355C191.54 77.7502 192.151 75.3053 194.036 74.1742C195.922 73.0431 198.366 73.654 199.498 75.5392L227.536 122.263C228.667 124.147 228.056 126.593 226.172 127.724C225.7 128.007 225.194 128.18 224.682 128.253Z" fill="#575B7A"/>
<path d="M95.3361 128.253C96.872 128.47 98.4593 127.772 99.3084 126.359L127.346 79.6355C128.478 77.7502 127.867 75.3053 125.982 74.1742C124.097 73.0431 121.652 73.654 120.521 75.5392L92.4821 122.263C91.351 124.148 91.9619 126.593 93.8461 127.724C94.3182 128.007 94.8245 128.18 95.3361 128.253Z" fill="#575B7A"/>
<path d="M136.076 103.85C136.076 105.799 134.497 107.38 132.546 107.38C130.597 107.38 129.017 105.799 129.017 103.85V96.8599C129.017 94.9106 130.597 93.3298 132.546 93.3298C134.495 93.3298 136.076 94.9106 136.076 96.8599V103.85Z" fill="#7FAB38"/>
<path d="M149.808 126.688C149.808 128.637 148.227 130.218 146.278 130.218C144.328 130.218 142.748 128.637 142.748 126.688V119.698C142.748 117.749 144.328 116.168 146.278 116.168C148.227 116.168 149.808 117.749 149.808 119.698V126.688Z" fill="#7FAB38"/>
<path d="M163.539 103.85C163.539 105.799 161.959 107.38 160.01 107.38C158.06 107.38 156.479 105.799 156.479 103.85V96.8599C156.479 94.9106 158.06 93.3298 160.01 93.3298C161.959 93.3298 163.539 94.9106 163.539 96.8599V103.85Z" fill="#7FAB38"/>
<path d="M177.27 126.688C177.27 128.637 175.689 130.218 173.74 130.218C171.791 130.218 170.21 128.637 170.21 126.688V119.698C170.21 117.749 171.791 116.168 173.74 116.168C175.689 116.168 177.27 117.749 177.27 119.698V126.688Z" fill="#7FAB38"/>
<path d="M191.001 103.85C191.001 105.799 189.421 107.38 187.471 107.38C185.522 107.38 183.942 105.799 183.942 103.85V96.8599C183.942 94.9106 185.522 93.3298 187.471 93.3298C189.42 93.3298 191.001 94.9106 191.001 96.8599V103.85Z" fill="#7FAB38"/>
<path d="M203.948 60.5568H193.506C192.373 60.5568 191.455 59.6382 191.455 58.506C191.455 57.3727 192.373 56.4552 193.506 56.4552H203.948C205.081 56.4552 205.999 57.3727 205.999 58.506C205.999 59.6382 205.081 60.5568 203.948 60.5568Z" fill="#C5C4CC"/>
<path d="M85.6543 222.012H81.5803L80.8803 224H79.2143L82.7003 214.256H84.5483L88.0343 224H86.3543L85.6543 222.012ZM85.2063 220.71L83.6243 216.188L82.0283 220.71H85.2063ZM92.35 224.126C91.7433 224.126 91.1973 224.019 90.712 223.804C90.236 223.58 89.858 223.281 89.578 222.908C89.298 222.525 89.1487 222.101 89.13 221.634H90.782C90.81 221.961 90.964 222.236 91.244 222.46C91.5333 222.675 91.8927 222.782 92.322 222.782C92.77 222.782 93.1153 222.698 93.358 222.53C93.61 222.353 93.736 222.129 93.736 221.858C93.736 221.569 93.596 221.354 93.316 221.214C93.0453 221.074 92.6113 220.92 92.014 220.752C91.4353 220.593 90.964 220.439 90.6 220.29C90.236 220.141 89.9187 219.912 89.648 219.604C89.3867 219.296 89.256 218.89 89.256 218.386C89.256 217.975 89.3773 217.602 89.62 217.266C89.8627 216.921 90.208 216.65 90.656 216.454C91.1133 216.258 91.636 216.16 92.224 216.16C93.1013 216.16 93.806 216.384 94.338 216.832C94.8793 217.271 95.1687 217.873 95.206 218.638H93.61C93.582 218.293 93.442 218.017 93.19 217.812C92.938 217.607 92.5973 217.504 92.168 217.504C91.748 217.504 91.426 217.583 91.202 217.742C90.978 217.901 90.866 218.111 90.866 218.372C90.866 218.577 90.9407 218.75 91.09 218.89C91.2393 219.03 91.4213 219.142 91.636 219.226C91.8507 219.301 92.168 219.399 92.588 219.52C93.148 219.669 93.6053 219.823 93.96 219.982C94.324 220.131 94.6367 220.355 94.898 220.654C95.1593 220.953 95.2947 221.349 95.304 221.844C95.304 222.283 95.1827 222.675 94.94 223.02C94.6973 223.365 94.352 223.636 93.904 223.832C93.4653 224.028 92.9473 224.126 92.35 224.126ZM110.003 216.16C110.61 216.16 111.151 216.286 111.627 216.538C112.113 216.79 112.491 217.163 112.761 217.658C113.041 218.153 113.181 218.75 113.181 219.45V224H111.599V219.688C111.599 218.997 111.427 218.47 111.081 218.106C110.736 217.733 110.265 217.546 109.667 217.546C109.07 217.546 108.594 217.733 108.239 218.106C107.894 218.47 107.721 218.997 107.721 219.688V224H106.139V219.688C106.139 218.997 105.967 218.47 105.621 218.106C105.276 217.733 104.805 217.546 104.207 217.546C103.61 217.546 103.134 217.733 102.779 218.106C102.434 218.47 102.261 218.997 102.261 219.688V224H100.665V216.286H102.261V217.168C102.523 216.851 102.854 216.603 103.255 216.426C103.657 216.249 104.086 216.16 104.543 216.16C105.159 216.16 105.71 216.291 106.195 216.552C106.681 216.813 107.054 217.191 107.315 217.686C107.549 217.219 107.913 216.851 108.407 216.58C108.902 216.3 109.434 216.16 110.003 216.16ZM122.282 219.954C122.282 220.243 122.263 220.505 122.226 220.738H116.332C116.379 221.354 116.607 221.849 117.018 222.222C117.429 222.595 117.933 222.782 118.53 222.782C119.389 222.782 119.995 222.423 120.35 221.704H122.072C121.839 222.413 121.414 222.997 120.798 223.454C120.191 223.902 119.435 224.126 118.53 224.126C117.793 224.126 117.13 223.963 116.542 223.636C115.963 223.3 115.506 222.833 115.17 222.236C114.843 221.629 114.68 220.929 114.68 220.136C114.68 219.343 114.839 218.647 115.156 218.05C115.483 217.443 115.935 216.977 116.514 216.65C117.102 216.323 117.774 216.16 118.53 216.16C119.258 216.16 119.907 216.319 120.476 216.636C121.045 216.953 121.489 217.401 121.806 217.98C122.123 218.549 122.282 219.207 122.282 219.954ZM120.616 219.45C120.607 218.862 120.397 218.391 119.986 218.036C119.575 217.681 119.067 217.504 118.46 217.504C117.909 217.504 117.438 217.681 117.046 218.036C116.654 218.381 116.421 218.853 116.346 219.45H120.616ZM125.449 213.64V224H123.853V213.64H125.449ZM131.534 216.16C132.122 216.16 132.645 216.286 133.102 216.538C133.569 216.79 133.933 217.163 134.194 217.658C134.465 218.153 134.6 218.75 134.6 219.45V224H133.018V219.688C133.018 218.997 132.845 218.47 132.5 218.106C132.155 217.733 131.683 217.546 131.086 217.546C130.489 217.546 130.013 217.733 129.658 218.106C129.313 218.47 129.14 218.997 129.14 219.688V224H127.544V213.64H129.14V217.182C129.411 216.855 129.751 216.603 130.162 216.426C130.582 216.249 131.039 216.16 131.534 216.16ZM139.982 224.126C139.254 224.126 138.596 223.963 138.008 223.636C137.42 223.3 136.958 222.833 136.622 222.236C136.286 221.629 136.118 220.929 136.118 220.136C136.118 219.352 136.291 218.657 136.636 218.05C136.981 217.443 137.453 216.977 138.05 216.65C138.647 216.323 139.315 216.16 140.052 216.16C140.789 216.16 141.457 216.323 142.054 216.65C142.651 216.977 143.123 217.443 143.468 218.05C143.813 218.657 143.986 219.352 143.986 220.136C143.986 220.92 143.809 221.615 143.454 222.222C143.099 222.829 142.614 223.3 141.998 223.636C141.391 223.963 140.719 224.126 139.982 224.126ZM139.982 222.74C140.393 222.74 140.775 222.642 141.13 222.446C141.494 222.25 141.788 221.956 142.012 221.564C142.236 221.172 142.348 220.696 142.348 220.136C142.348 219.576 142.241 219.105 142.026 218.722C141.811 218.33 141.527 218.036 141.172 217.84C140.817 217.644 140.435 217.546 140.024 217.546C139.613 217.546 139.231 217.644 138.876 217.84C138.531 218.036 138.255 218.33 138.05 218.722C137.845 219.105 137.742 219.576 137.742 220.136C137.742 220.967 137.952 221.611 138.372 222.068C138.801 222.516 139.338 222.74 139.982 222.74ZM147.16 217.406C147.393 217.014 147.701 216.711 148.084 216.496C148.476 216.272 148.938 216.16 149.47 216.16V217.812H149.064C148.438 217.812 147.962 217.971 147.636 218.288C147.318 218.605 147.16 219.156 147.16 219.94V224H145.564V216.286H147.16V217.406ZM158.007 219.954C158.007 220.243 157.988 220.505 157.951 220.738H152.057C152.103 221.354 152.332 221.849 152.743 222.222C153.153 222.595 153.657 222.782 154.255 222.782C155.113 222.782 155.72 222.423 156.075 221.704H157.797C157.563 222.413 157.139 222.997 156.523 223.454C155.916 223.902 155.16 224.126 154.255 224.126C153.517 224.126 152.855 223.963 152.267 223.636C151.688 223.3 151.231 222.833 150.895 222.236C150.568 221.629 150.405 220.929 150.405 220.136C150.405 219.343 150.563 218.647 150.881 218.05C151.207 217.443 151.66 216.977 152.239 216.65C152.827 216.323 153.499 216.16 154.255 216.16C154.983 216.16 155.631 216.319 156.201 216.636C156.77 216.953 157.213 217.401 157.531 217.98C157.848 218.549 158.007 219.207 158.007 219.954ZM156.341 219.45C156.331 218.862 156.121 218.391 155.711 218.036C155.3 217.681 154.791 217.504 154.185 217.504C153.634 217.504 153.163 217.681 152.771 218.036C152.379 218.381 152.145 218.853 152.071 219.45H156.341ZM162.377 224.126C161.771 224.126 161.225 224.019 160.739 223.804C160.263 223.58 159.885 223.281 159.605 222.908C159.325 222.525 159.176 222.101 159.157 221.634H160.809C160.837 221.961 160.991 222.236 161.271 222.46C161.561 222.675 161.92 222.782 162.349 222.782C162.797 222.782 163.143 222.698 163.385 222.53C163.637 222.353 163.763 222.129 163.763 221.858C163.763 221.569 163.623 221.354 163.343 221.214C163.073 221.074 162.639 220.92 162.041 220.752C161.463 220.593 160.991 220.439 160.627 220.29C160.263 220.141 159.946 219.912 159.675 219.604C159.414 219.296 159.283 218.89 159.283 218.386C159.283 217.975 159.405 217.602 159.647 217.266C159.89 216.921 160.235 216.65 160.683 216.454C161.141 216.258 161.663 216.16 162.251 216.16C163.129 216.16 163.833 216.384 164.365 216.832C164.907 217.271 165.196 217.873 165.233 218.638H163.637C163.609 218.293 163.469 218.017 163.217 217.812C162.965 217.607 162.625 217.504 162.195 217.504C161.775 217.504 161.453 217.583 161.229 217.742C161.005 217.901 160.893 218.111 160.893 218.372C160.893 218.577 160.968 218.75 161.117 218.89C161.267 219.03 161.449 219.142 161.663 219.226C161.878 219.301 162.195 219.399 162.615 219.52C163.175 219.669 163.633 219.823 163.987 219.982C164.351 220.131 164.664 220.355 164.925 220.654C165.187 220.953 165.322 221.349 165.331 221.844C165.331 222.283 165.21 222.675 164.967 223.02C164.725 223.365 164.379 223.636 163.931 223.832C163.493 224.028 162.975 224.126 162.377 224.126ZM174.039 224.126C173.311 224.126 172.653 223.963 172.065 223.636C171.477 223.3 171.015 222.833 170.679 222.236C170.343 221.629 170.175 220.929 170.175 220.136C170.175 219.352 170.347 218.657 170.693 218.05C171.038 217.443 171.509 216.977 172.107 216.65C172.704 216.323 173.371 216.16 174.109 216.16C174.846 216.16 175.513 216.323 176.111 216.65C176.708 216.977 177.179 217.443 177.525 218.05C177.87 218.657 178.043 219.352 178.043 220.136C178.043 220.92 177.865 221.615 177.511 222.222C177.156 222.829 176.671 223.3 176.055 223.636C175.448 223.963 174.776 224.126 174.039 224.126ZM174.039 222.74C174.449 222.74 174.832 222.642 175.187 222.446C175.551 222.25 175.845 221.956 176.069 221.564C176.293 221.172 176.405 220.696 176.405 220.136C176.405 219.576 176.297 219.105 176.083 218.722C175.868 218.33 175.583 218.036 175.229 217.84C174.874 217.644 174.491 217.546 174.081 217.546C173.67 217.546 173.287 217.644 172.933 217.84C172.587 218.036 172.312 218.33 172.107 218.722C171.901 219.105 171.799 219.576 171.799 220.136C171.799 220.967 172.009 221.611 172.429 222.068C172.858 222.516 173.395 222.74 174.039 222.74ZM182.854 217.588H181.426V224H179.816V217.588H178.906V216.286H179.816V215.74C179.816 214.853 180.05 214.209 180.516 213.808C180.992 213.397 181.734 213.192 182.742 213.192V214.522C182.257 214.522 181.916 214.615 181.72 214.802C181.524 214.979 181.426 215.292 181.426 215.74V216.286H182.854V217.588ZM191.339 219.954C191.339 220.243 191.32 220.505 191.283 220.738H185.389C185.435 221.354 185.664 221.849 186.075 222.222C186.485 222.595 186.989 222.782 187.587 222.782C188.445 222.782 189.052 222.423 189.407 221.704H191.129C190.895 222.413 190.471 222.997 189.855 223.454C189.248 223.902 188.492 224.126 187.587 224.126C186.849 224.126 186.187 223.963 185.599 223.636C185.02 223.3 184.563 222.833 184.227 222.236C183.9 221.629 183.737 220.929 183.737 220.136C183.737 219.343 183.895 218.647 184.213 218.05C184.539 217.443 184.992 216.977 185.571 216.65C186.159 216.323 186.831 216.16 187.587 216.16C188.315 216.16 188.963 216.319 189.533 216.636C190.102 216.953 190.545 217.401 190.863 217.98C191.18 218.549 191.339 219.207 191.339 219.954ZM189.673 219.45C189.663 218.862 189.453 218.391 189.043 218.036C188.632 217.681 188.123 217.504 187.517 217.504C186.966 217.504 186.495 217.681 186.103 218.036C185.711 218.381 185.477 218.853 185.403 219.45H189.673ZM194.505 217.406C194.739 217.014 195.047 216.711 195.429 216.496C195.821 216.272 196.283 216.16 196.815 216.16V217.812H196.409C195.784 217.812 195.308 217.971 194.981 218.288C194.664 218.605 194.505 219.156 194.505 219.94V224H192.909V216.286H194.505V217.406ZM200.144 217.588V221.858C200.144 222.147 200.21 222.357 200.34 222.488C200.48 222.609 200.714 222.67 201.04 222.67H202.02V224H200.76C200.042 224 199.491 223.832 199.108 223.496C198.726 223.16 198.534 222.614 198.534 221.858V217.588H197.624V216.286H198.534V214.368H200.144V216.286H202.02V217.588H200.144ZM202.959 220.108C202.959 219.333 203.118 218.647 203.435 218.05C203.762 217.453 204.201 216.991 204.751 216.664C205.311 216.328 205.927 216.16 206.599 216.16C207.206 216.16 207.733 216.281 208.181 216.524C208.639 216.757 209.003 217.051 209.273 217.406V216.286H210.883V224H209.273V222.852C209.003 223.216 208.634 223.519 208.167 223.762C207.701 224.005 207.169 224.126 206.571 224.126C205.909 224.126 205.302 223.958 204.751 223.622C204.201 223.277 203.762 222.801 203.435 222.194C203.118 221.578 202.959 220.883 202.959 220.108ZM209.273 220.136C209.273 219.604 209.161 219.142 208.937 218.75C208.723 218.358 208.438 218.059 208.083 217.854C207.729 217.649 207.346 217.546 206.935 217.546C206.525 217.546 206.142 217.649 205.787 217.854C205.433 218.05 205.143 218.344 204.919 218.736C204.705 219.119 204.597 219.576 204.597 220.108C204.597 220.64 204.705 221.107 204.919 221.508C205.143 221.909 205.433 222.217 205.787 222.432C206.151 222.637 206.534 222.74 206.935 222.74C207.346 222.74 207.729 222.637 208.083 222.432C208.438 222.227 208.723 221.928 208.937 221.536C209.161 221.135 209.273 220.668 209.273 220.136ZM215.78 224.126C215.173 224.126 214.627 224.019 214.142 223.804C213.666 223.58 213.288 223.281 213.008 222.908C212.728 222.525 212.578 222.101 212.56 221.634H214.212C214.24 221.961 214.394 222.236 214.674 222.46C214.963 222.675 215.322 222.782 215.752 222.782C216.2 222.782 216.545 222.698 216.788 222.53C217.04 222.353 217.166 222.129 217.166 221.858C217.166 221.569 217.026 221.354 216.746 221.214C216.475 221.074 216.041 220.92 215.444 220.752C214.865 220.593 214.394 220.439 214.03 220.29C213.666 220.141 213.348 219.912 213.078 219.604C212.816 219.296 212.686 218.89 212.686 218.386C212.686 217.975 212.807 217.602 213.05 217.266C213.292 216.921 213.638 216.65 214.086 216.454C214.543 216.258 215.066 216.16 215.654 216.16C216.531 216.16 217.236 216.384 217.768 216.832C218.309 217.271 218.598 217.873 218.636 218.638H217.04C217.012 218.293 216.872 218.017 216.62 217.812C216.368 217.607 216.027 217.504 215.598 217.504C215.178 217.504 214.856 217.583 214.632 217.742C214.408 217.901 214.296 218.111 214.296 218.372C214.296 218.577 214.37 218.75 214.52 218.89C214.669 219.03 214.851 219.142 215.066 219.226C215.28 219.301 215.598 219.399 216.018 219.52C216.578 219.669 217.035 219.823 217.39 219.982C217.754 220.131 218.066 220.355 218.328 220.654C218.589 220.953 218.724 221.349 218.734 221.844C218.734 222.283 218.612 222.675 218.37 223.02C218.127 223.365 217.782 223.636 217.334 223.832C216.895 224.028 216.377 224.126 215.78 224.126ZM227.987 216.16C228.594 216.16 229.135 216.286 229.611 216.538C230.096 216.79 230.474 217.163 230.745 217.658C231.016 218.153 231.151 218.75 231.151 219.45V224H229.569V219.688C229.569 218.997 229.396 218.47 229.051 218.106C228.706 217.733 228.234 217.546 227.637 217.546C227.04 217.546 226.564 217.733 226.209 218.106C225.864 218.47 225.691 218.997 225.691 219.688V224H224.095V216.286H225.691V217.168C225.952 216.851 226.284 216.603 226.685 216.426C227.096 216.249 227.53 216.16 227.987 216.16ZM232.655 220.108C232.655 219.333 232.813 218.647 233.131 218.05C233.457 217.453 233.896 216.991 234.447 216.664C235.007 216.328 235.623 216.16 236.295 216.16C236.901 216.16 237.429 216.281 237.877 216.524C238.334 216.757 238.698 217.051 238.969 217.406V216.286H240.579V224H238.969V222.852C238.698 223.216 238.329 223.519 237.863 223.762C237.396 224.005 236.864 224.126 236.267 224.126C235.604 224.126 234.997 223.958 234.447 223.622C233.896 223.277 233.457 222.801 233.131 222.194C232.813 221.578 232.655 220.883 232.655 220.108ZM238.969 220.136C238.969 219.604 238.857 219.142 238.633 218.75C238.418 218.358 238.133 218.059 237.779 217.854C237.424 217.649 237.041 217.546 236.631 217.546C236.22 217.546 235.837 217.649 235.483 217.854C235.128 218.05 234.839 218.344 234.615 218.736C234.4 219.119 234.293 219.576 234.293 220.108C234.293 220.64 234.4 221.107 234.615 221.508C234.839 221.909 235.128 222.217 235.483 222.432C235.847 222.637 236.229 222.74 236.631 222.74C237.041 222.74 237.424 222.637 237.779 222.432C238.133 222.227 238.418 221.928 238.633 221.536C238.857 221.135 238.969 220.668 238.969 220.136ZM95.0151 238.42C95.2858 238.065 95.6545 237.767 96.1211 237.524C96.5878 237.281 97.1151 237.16 97.7031 237.16C98.3751 237.16 98.9865 237.328 99.5371 237.664C100.097 237.991 100.536 238.453 100.853 239.05C101.17 239.647 101.329 240.333 101.329 241.108C101.329 241.883 101.17 242.578 100.853 243.194C100.536 243.801 100.097 244.277 99.5371 244.622C98.9865 244.958 98.3751 245.126 97.7031 245.126C97.1151 245.126 96.5925 245.009 96.1351 244.776C95.6778 244.533 95.3045 244.235 95.0151 243.88V248.668H93.4191V237.286H95.0151V238.42ZM99.7051 241.108C99.7051 240.576 99.5931 240.119 99.3691 239.736C99.1545 239.344 98.8651 239.05 98.5011 238.854C98.1465 238.649 97.7638 238.546 97.3531 238.546C96.9518 238.546 96.5691 238.649 96.2051 238.854C95.8505 239.059 95.5611 239.358 95.3371 239.75C95.1225 240.142 95.0151 240.604 95.0151 241.136C95.0151 241.668 95.1225 242.135 95.3371 242.536C95.5611 242.928 95.8505 243.227 96.2051 243.432C96.5691 243.637 96.9518 243.74 97.3531 243.74C97.7638 243.74 98.1465 243.637 98.5011 243.432C98.8651 243.217 99.1545 242.909 99.3691 242.508C99.5931 242.107 99.7051 241.64 99.7051 241.108ZM104.503 234.64V245H102.907V234.64H104.503ZM106.067 241.108C106.067 240.333 106.225 239.647 106.543 239.05C106.869 238.453 107.308 237.991 107.859 237.664C108.419 237.328 109.035 237.16 109.707 237.16C110.313 237.16 110.841 237.281 111.289 237.524C111.746 237.757 112.11 238.051 112.381 238.406V237.286H113.991V245H112.381V243.852C112.11 244.216 111.741 244.519 111.275 244.762C110.808 245.005 110.276 245.126 109.679 245.126C109.016 245.126 108.409 244.958 107.859 244.622C107.308 244.277 106.869 243.801 106.543 243.194C106.225 242.578 106.067 241.883 106.067 241.108ZM112.381 241.136C112.381 240.604 112.269 240.142 112.045 239.75C111.83 239.358 111.545 239.059 111.191 238.854C110.836 238.649 110.453 238.546 110.043 238.546C109.632 238.546 109.249 238.649 108.895 238.854C108.54 239.05 108.251 239.344 108.027 239.736C107.812 240.119 107.705 240.576 107.705 241.108C107.705 241.64 107.812 242.107 108.027 242.508C108.251 242.909 108.54 243.217 108.895 243.432C109.259 243.637 109.641 243.74 110.043 243.74C110.453 243.74 110.836 243.637 111.191 243.432C111.545 243.227 111.83 242.928 112.045 242.536C112.269 242.135 112.381 241.668 112.381 241.136ZM125.425 237.16C126.032 237.16 126.573 237.286 127.049 237.538C127.534 237.79 127.912 238.163 128.183 238.658C128.463 239.153 128.603 239.75 128.603 240.45V245H127.021V240.688C127.021 239.997 126.848 239.47 126.503 239.106C126.158 238.733 125.686 238.546 125.089 238.546C124.492 238.546 124.016 238.733 123.661 239.106C123.316 239.47 123.143 239.997 123.143 240.688V245H121.561V240.688C121.561 239.997 121.388 239.47 121.043 239.106C120.698 238.733 120.226 238.546 119.629 238.546C119.032 238.546 118.556 238.733 118.201 239.106C117.856 239.47 117.683 239.997 117.683 240.688V245H116.087V237.286H117.683V238.168C117.944 237.851 118.276 237.603 118.677 237.426C119.078 237.249 119.508 237.16 119.965 237.16C120.581 237.16 121.132 237.291 121.617 237.552C122.102 237.813 122.476 238.191 122.737 238.686C122.97 238.219 123.334 237.851 123.829 237.58C124.324 237.3 124.856 237.16 125.425 237.16ZM130.102 241.108C130.102 240.333 130.261 239.647 130.578 239.05C130.905 238.453 131.343 237.991 131.894 237.664C132.454 237.328 133.07 237.16 133.742 237.16C134.349 237.16 134.876 237.281 135.324 237.524C135.781 237.757 136.145 238.051 136.416 238.406V237.286H138.026V245H136.416V243.852C136.145 244.216 135.777 244.519 135.31 244.762C134.843 245.005 134.311 245.126 133.714 245.126C133.051 245.126 132.445 244.958 131.894 244.622C131.343 244.277 130.905 243.801 130.578 243.194C130.261 242.578 130.102 241.883 130.102 241.108ZM136.416 241.136C136.416 240.604 136.304 240.142 136.08 239.75C135.865 239.358 135.581 239.059 135.226 238.854C134.871 238.649 134.489 238.546 134.078 238.546C133.667 238.546 133.285 238.649 132.93 238.854C132.575 239.05 132.286 239.344 132.062 239.736C131.847 240.119 131.74 240.576 131.74 241.108C131.74 241.64 131.847 242.107 132.062 242.508C132.286 242.909 132.575 243.217 132.93 243.432C133.294 243.637 133.677 243.74 134.078 243.74C134.489 243.74 134.871 243.637 135.226 243.432C135.581 243.227 135.865 242.928 136.08 242.536C136.304 242.135 136.416 241.668 136.416 241.136ZM143.227 241.108C143.227 240.333 143.386 239.647 143.703 239.05C144.03 238.453 144.468 237.991 145.019 237.664C145.579 237.328 146.2 237.16 146.881 237.16C147.385 237.16 147.88 237.272 148.365 237.496C148.86 237.711 149.252 238 149.541 238.364V234.64H151.151V245H149.541V243.838C149.28 244.211 148.916 244.519 148.449 244.762C147.992 245.005 147.464 245.126 146.867 245.126C146.195 245.126 145.579 244.958 145.019 244.622C144.468 244.277 144.03 243.801 143.703 243.194C143.386 242.578 143.227 241.883 143.227 241.108ZM149.541 241.136C149.541 240.604 149.429 240.142 149.205 239.75C148.99 239.358 148.706 239.059 148.351 238.854C147.996 238.649 147.614 238.546 147.203 238.546C146.792 238.546 146.41 238.649 146.055 238.854C145.7 239.05 145.411 239.344 145.187 239.736C144.972 240.119 144.865 240.576 144.865 241.108C144.865 241.64 144.972 242.107 145.187 242.508C145.411 242.909 145.7 243.217 146.055 243.432C146.419 243.637 146.802 243.74 147.203 243.74C147.614 243.74 147.996 243.637 148.351 243.432C148.706 243.227 148.99 242.928 149.205 242.536C149.429 242.135 149.541 241.668 149.541 241.136ZM160.317 240.954C160.317 241.243 160.299 241.505 160.261 241.738H154.367C154.414 242.354 154.643 242.849 155.053 243.222C155.464 243.595 155.968 243.782 156.565 243.782C157.424 243.782 158.031 243.423 158.385 242.704H160.107C159.874 243.413 159.449 243.997 158.833 244.454C158.227 244.902 157.471 245.126 156.565 245.126C155.828 245.126 155.165 244.963 154.577 244.636C153.999 244.3 153.541 243.833 153.205 243.236C152.879 242.629 152.715 241.929 152.715 241.136C152.715 240.343 152.874 239.647 153.191 239.05C153.518 238.443 153.971 237.977 154.549 237.65C155.137 237.323 155.809 237.16 156.565 237.16C157.293 237.16 157.942 237.319 158.511 237.636C159.081 237.953 159.524 238.401 159.841 238.98C160.159 239.549 160.317 240.207 160.317 240.954ZM158.651 240.45C158.642 239.862 158.432 239.391 158.021 239.036C157.611 238.681 157.102 238.504 156.495 238.504C155.945 238.504 155.473 238.681 155.081 239.036C154.689 239.381 154.456 239.853 154.381 240.45H158.651ZM168.325 245.126C167.718 245.126 167.172 245.019 166.687 244.804C166.211 244.58 165.833 244.281 165.553 243.908C165.273 243.525 165.123 243.101 165.105 242.634H166.757C166.785 242.961 166.939 243.236 167.219 243.46C167.508 243.675 167.867 243.782 168.297 243.782C168.745 243.782 169.09 243.698 169.333 243.53C169.585 243.353 169.711 243.129 169.711 242.858C169.711 242.569 169.571 242.354 169.291 242.214C169.02 242.074 168.586 241.92 167.989 241.752C167.41 241.593 166.939 241.439 166.575 241.29C166.211 241.141 165.893 240.912 165.623 240.604C165.361 240.296 165.231 239.89 165.231 239.386C165.231 238.975 165.352 238.602 165.595 238.266C165.837 237.921 166.183 237.65 166.631 237.454C167.088 237.258 167.611 237.16 168.199 237.16C169.076 237.16 169.781 237.384 170.313 237.832C170.854 238.271 171.143 238.873 171.181 239.638H169.585C169.557 239.293 169.417 239.017 169.165 238.812C168.913 238.607 168.572 238.504 168.143 238.504C167.723 238.504 167.401 238.583 167.177 238.742C166.953 238.901 166.841 239.111 166.841 239.372C166.841 239.577 166.915 239.75 167.065 239.89C167.214 240.03 167.396 240.142 167.611 240.226C167.825 240.301 168.143 240.399 168.563 240.52C169.123 240.669 169.58 240.823 169.935 240.982C170.299 241.131 170.611 241.355 170.873 241.654C171.134 241.953 171.269 242.349 171.279 242.844C171.279 243.283 171.157 243.675 170.915 244.02C170.672 244.365 170.327 244.636 169.879 244.832C169.44 245.028 168.922 245.126 168.325 245.126ZM179.989 237.286V245H178.393V244.09C178.141 244.407 177.81 244.659 177.399 244.846C176.998 245.023 176.568 245.112 176.111 245.112C175.504 245.112 174.958 244.986 174.473 244.734C173.997 244.482 173.619 244.109 173.339 243.614C173.068 243.119 172.933 242.522 172.933 241.822V237.286H174.515V241.584C174.515 242.275 174.688 242.807 175.033 243.18C175.378 243.544 175.85 243.726 176.447 243.726C177.044 243.726 177.516 243.544 177.861 243.18C178.216 242.807 178.393 242.275 178.393 241.584V237.286H179.989ZM181.563 241.108C181.563 240.333 181.722 239.647 182.039 239.05C182.366 238.453 182.804 237.991 183.355 237.664C183.915 237.328 184.531 237.16 185.203 237.16C185.81 237.16 186.337 237.281 186.785 237.524C187.242 237.757 187.606 238.051 187.877 238.406V237.286H189.487V245H187.877V243.852C187.606 244.216 187.238 244.519 186.771 244.762C186.304 245.005 185.772 245.126 185.175 245.126C184.512 245.126 183.906 244.958 183.355 244.622C182.804 244.277 182.366 243.801 182.039 243.194C181.722 242.578 181.563 241.883 181.563 241.108ZM187.877 241.136C187.877 240.604 187.765 240.142 187.541 239.75C187.326 239.358 187.042 239.059 186.687 238.854C186.332 238.649 185.95 238.546 185.539 238.546C185.128 238.546 184.746 238.649 184.391 238.854C184.036 239.05 183.747 239.344 183.523 239.736C183.308 240.119 183.201 240.576 183.201 241.108C183.201 241.64 183.308 242.107 183.523 242.508C183.747 242.909 184.036 243.217 184.391 243.432C184.755 243.637 185.138 243.74 185.539 243.74C185.95 243.74 186.332 243.637 186.687 243.432C187.042 243.227 187.326 242.928 187.541 242.536C187.765 242.135 187.877 241.668 187.877 241.136ZM204.558 237.16C205.165 237.16 205.706 237.286 206.182 237.538C206.667 237.79 207.045 238.163 207.316 238.658C207.596 239.153 207.736 239.75 207.736 240.45V245H206.154V240.688C206.154 239.997 205.981 239.47 205.636 239.106C205.291 238.733 204.819 238.546 204.222 238.546C203.625 238.546 203.149 238.733 202.794 239.106C202.449 239.47 202.276 239.997 202.276 240.688V245H200.694V240.688C200.694 239.997 200.521 239.47 200.176 239.106C199.831 238.733 199.359 238.546 198.762 238.546C198.165 238.546 197.689 238.733 197.334 239.106C196.989 239.47 196.816 239.997 196.816 240.688V245H195.22V237.286H196.816V238.168C197.077 237.851 197.409 237.603 197.81 237.426C198.211 237.249 198.641 237.16 199.098 237.16C199.714 237.16 200.265 237.291 200.75 237.552C201.235 237.813 201.609 238.191 201.87 238.686C202.103 238.219 202.467 237.851 202.962 237.58C203.457 237.3 203.989 237.16 204.558 237.16ZM209.235 241.108C209.235 240.333 209.393 239.647 209.711 239.05C210.037 238.453 210.476 237.991 211.027 237.664C211.587 237.328 212.203 237.16 212.875 237.16C213.481 237.16 214.009 237.281 214.457 237.524C214.914 237.757 215.278 238.051 215.549 238.406V237.286H217.159V245H215.549V243.852C215.278 244.216 214.909 244.519 214.443 244.762C213.976 245.005 213.444 245.126 212.847 245.126C212.184 245.126 211.577 244.958 211.027 244.622C210.476 244.277 210.037 243.801 209.711 243.194C209.393 242.578 209.235 241.883 209.235 241.108ZM215.549 241.136C215.549 240.604 215.437 240.142 215.213 239.75C214.998 239.358 214.713 239.059 214.359 238.854C214.004 238.649 213.621 238.546 213.211 238.546C212.8 238.546 212.417 238.649 212.063 238.854C211.708 239.05 211.419 239.344 211.195 239.736C210.98 240.119 210.873 240.576 210.873 241.108C210.873 241.64 210.98 242.107 211.195 242.508C211.419 242.909 211.708 243.217 212.063 243.432C212.427 243.637 212.809 243.74 213.211 243.74C213.621 243.74 214.004 243.637 214.359 243.432C214.713 243.227 214.998 242.928 215.213 242.536C215.437 242.135 215.549 241.668 215.549 241.136ZM211.181 236.488C211.255 235.947 211.433 235.541 211.713 235.27C211.993 234.99 212.343 234.85 212.763 234.85C212.94 234.85 213.094 234.878 213.225 234.934C213.355 234.99 213.514 235.074 213.701 235.186C213.841 235.279 213.957 235.349 214.051 235.396C214.153 235.443 214.265 235.466 214.387 235.466C214.545 235.466 214.676 235.419 214.779 235.326C214.891 235.223 214.961 235.074 214.989 234.878H215.885C215.81 235.419 215.633 235.83 215.353 236.11C215.073 236.381 214.723 236.516 214.303 236.516C214.125 236.516 213.967 236.488 213.827 236.432C213.687 236.367 213.533 236.278 213.365 236.166C213.197 236.063 213.066 235.993 212.973 235.956C212.889 235.909 212.791 235.886 212.679 235.886C212.52 235.886 212.385 235.937 212.273 236.04C212.17 236.143 212.105 236.292 212.077 236.488H211.181ZM222.601 245.126C221.873 245.126 221.215 244.963 220.627 244.636C220.039 244.3 219.577 243.833 219.241 243.236C218.905 242.629 218.737 241.929 218.737 241.136C218.737 240.352 218.91 239.657 219.255 239.05C219.6 238.443 220.072 237.977 220.669 237.65C221.266 237.323 221.934 237.16 222.671 237.16C223.408 237.16 224.076 237.323 224.673 237.65C225.27 237.977 225.742 238.443 226.087 239.05C226.432 239.657 226.605 240.352 226.605 241.136C226.605 241.92 226.428 242.615 226.073 243.222C225.718 243.829 225.233 244.3 224.617 244.636C224.01 244.963 223.338 245.126 222.601 245.126ZM222.601 243.74C223.012 243.74 223.394 243.642 223.749 243.446C224.113 243.25 224.407 242.956 224.631 242.564C224.855 242.172 224.967 241.696 224.967 241.136C224.967 240.576 224.86 240.105 224.645 239.722C224.43 239.33 224.146 239.036 223.791 238.84C223.436 238.644 223.054 238.546 222.643 238.546C222.232 238.546 221.85 238.644 221.495 238.84C221.15 239.036 220.874 239.33 220.669 239.722C220.464 240.105 220.361 240.576 220.361 241.136C220.361 241.967 220.571 242.611 220.991 243.068C221.42 243.516 221.957 243.74 222.601 243.74ZM230.185 235.27L230.003 242.06H228.673L228.491 235.27H230.185ZM229.387 245.098C229.097 245.098 228.855 245 228.659 244.804C228.463 244.608 228.365 244.365 228.365 244.076C228.365 243.787 228.463 243.544 228.659 243.348C228.855 243.152 229.097 243.054 229.387 243.054C229.667 243.054 229.905 243.152 230.101 243.348C230.297 243.544 230.395 243.787 230.395 244.076C230.395 244.365 230.297 244.608 230.101 244.804C229.905 245 229.667 245.098 229.387 245.098Z" fill="#90B6E1"/>
<path d="M76.152 174.2C78.088 174.2 79.544 174.568 80.52 175.304C81.512 176.04 82.008 177.112 82.008 178.52C82.008 179.608 81.8 180.552 81.384 181.352C80.984 182.136 80.408 182.784 79.656 183.296C78.904 183.808 78 184.192 76.944 184.448C75.888 184.688 74.712 184.808 73.416 184.808H71.76L70.272 191H67.944L71.88 174.584C72.552 174.424 73.264 174.32 74.016 174.272C74.768 174.224 75.48 174.2 76.152 174.2ZM75.864 176.168C74.728 176.168 74.04 176.2 73.8 176.264L72.216 182.864H73.728C74.4 182.864 75.088 182.808 75.792 182.696C76.496 182.568 77.128 182.352 77.688 182.048C78.248 181.744 78.704 181.328 79.056 180.8C79.424 180.256 79.608 179.56 79.608 178.712C79.608 177.8 79.272 177.152 78.6 176.768C77.928 176.368 77.016 176.168 75.864 176.168ZM89.1323 178.256C89.3243 178.256 89.5403 178.264 89.7803 178.28C90.0203 178.296 90.2523 178.328 90.4763 178.376C90.7163 178.408 90.9323 178.448 91.1243 178.496C91.3163 178.528 91.4603 178.568 91.5563 178.616L90.9083 180.56C90.5883 180.432 90.2203 180.336 89.8043 180.272C89.3883 180.208 88.9883 180.176 88.6043 180.176C88.2683 180.176 87.9323 180.2 87.5963 180.248C87.2763 180.296 86.9963 180.36 86.7563 180.44L84.2123 191H81.9803L84.8603 179C85.5003 178.776 86.1883 178.6 86.9243 178.472C87.6603 178.328 88.3963 178.256 89.1323 178.256ZM95.5688 191.312C94.2568 191.312 93.2248 190.928 92.4728 190.16C91.7368 189.376 91.3688 188.304 91.3688 186.944C91.3688 186.016 91.4968 185.04 91.7528 184.016C92.0248 182.992 92.4488 182.048 93.0248 181.184C93.6008 180.32 94.3448 179.608 95.2568 179.048C96.1688 178.488 97.2728 178.208 98.5688 178.208C99.8808 178.208 100.905 178.6 101.641 179.384C102.393 180.152 102.769 181.216 102.769 182.576C102.769 183.504 102.633 184.48 102.361 185.504C102.105 186.528 101.689 187.472 101.113 188.336C100.537 189.2 99.7928 189.912 98.8808 190.472C97.9688 191.032 96.8648 191.312 95.5688 191.312ZM95.9528 189.416C96.6728 189.416 97.3128 189.208 97.8728 188.792C98.4488 188.376 98.9288 187.848 99.3128 187.208C99.7128 186.552 100.017 185.832 100.225 185.048C100.433 184.264 100.537 183.504 100.537 182.768C100.537 181.952 100.361 181.304 100.009 180.824C99.6568 180.344 99.0488 180.104 98.1848 180.104C97.4648 180.104 96.8168 180.312 96.2408 180.728C95.6808 181.144 95.2008 181.68 94.8008 182.336C94.4168 182.976 94.1208 183.688 93.9128 184.472C93.7048 185.256 93.6008 186.016 93.6008 186.752C93.6008 187.568 93.7768 188.216 94.1288 188.696C94.4808 189.176 95.0888 189.416 95.9528 189.416ZM118.553 178.256C119.257 178.256 119.849 178.368 120.329 178.592C120.825 178.8 121.217 179.088 121.505 179.456C121.809 179.824 122.025 180.256 122.153 180.752C122.281 181.232 122.345 181.744 122.345 182.288C122.345 182.64 122.313 183.024 122.249 183.44C122.201 183.84 122.129 184.232 122.033 184.616L120.497 191H118.265L119.681 185.096C119.761 184.728 119.849 184.32 119.945 183.872C120.057 183.408 120.113 182.952 120.113 182.504C120.113 182.2 120.073 181.904 119.993 181.616C119.929 181.328 119.809 181.08 119.633 180.872C119.473 180.664 119.241 180.496 118.937 180.368C118.633 180.24 118.257 180.176 117.809 180.176C117.297 180.176 116.801 180.28 116.321 180.488C115.841 180.68 115.441 180.88 115.121 181.088C115.153 181.312 115.177 181.536 115.193 181.76C115.225 181.968 115.241 182.176 115.241 182.384C115.241 182.752 115.209 183.128 115.145 183.512C115.097 183.88 115.033 184.248 114.953 184.616L113.417 191H111.185L112.601 185.096C112.681 184.728 112.769 184.312 112.865 183.848C112.961 183.384 113.009 182.92 113.009 182.456C113.009 182.152 112.977 181.864 112.913 181.592C112.849 181.304 112.737 181.056 112.577 180.848C112.433 180.64 112.233 180.48 111.977 180.368C111.721 180.24 111.393 180.176 110.993 180.176C110.593 180.176 110.201 180.2 109.817 180.248C109.449 180.296 109.137 180.36 108.881 180.44L106.337 191H104.105L106.985 179C107.705 178.776 108.489 178.6 109.337 178.472C110.201 178.328 110.969 178.256 111.641 178.256C112.313 178.256 112.881 178.376 113.345 178.616C113.809 178.84 114.177 179.144 114.449 179.528C114.609 179.416 114.825 179.288 115.097 179.144C115.385 179 115.705 178.864 116.057 178.736C116.425 178.608 116.817 178.496 117.233 178.4C117.665 178.304 118.105 178.256 118.553 178.256ZM128.756 191.312C127.444 191.312 126.412 190.928 125.66 190.16C124.924 189.376 124.556 188.304 124.556 186.944C124.556 186.016 124.684 185.04 124.94 184.016C125.212 182.992 125.636 182.048 126.212 181.184C126.788 180.32 127.532 179.608 128.444 179.048C129.356 178.488 130.46 178.208 131.756 178.208C133.068 178.208 134.092 178.6 134.828 179.384C135.58 180.152 135.956 181.216 135.956 182.576C135.956 183.504 135.82 184.48 135.548 185.504C135.292 186.528 134.876 187.472 134.3 188.336C133.724 189.2 132.98 189.912 132.068 190.472C131.156 191.032 130.052 191.312 128.756 191.312ZM129.14 189.416C129.86 189.416 130.5 189.208 131.06 188.792C131.636 188.376 132.116 187.848 132.5 187.208C132.9 186.552 133.204 185.832 133.412 185.048C133.62 184.264 133.724 183.504 133.724 182.768C133.724 181.952 133.548 181.304 133.196 180.824C132.844 180.344 132.236 180.104 131.372 180.104C130.652 180.104 130.004 180.312 129.428 180.728C128.868 181.144 128.388 181.68 127.988 182.336C127.604 182.976 127.308 183.688 127.1 184.472C126.892 185.256 126.788 186.016 126.788 186.752C126.788 187.568 126.964 188.216 127.316 188.696C127.668 189.176 128.276 189.416 129.14 189.416ZM137.869 186.536C137.869 185.448 138.029 184.4 138.349 183.392C138.685 182.384 139.173 181.496 139.813 180.728C140.453 179.96 141.237 179.352 142.165 178.904C143.093 178.44 144.157 178.208 145.357 178.208C145.885 178.208 146.389 178.248 146.869 178.328C147.349 178.392 147.805 178.528 148.237 178.736L147.397 180.608C147.141 180.464 146.837 180.352 146.485 180.272C146.149 180.192 145.709 180.152 145.165 180.152C144.381 180.152 143.677 180.328 143.053 180.68C142.429 181.016 141.893 181.472 141.445 182.048C141.013 182.608 140.677 183.264 140.437 184.016C140.213 184.752 140.101 185.52 140.101 186.32C140.101 186.736 140.141 187.128 140.221 187.496C140.317 187.864 140.477 188.192 140.701 188.48C140.925 188.752 141.221 188.968 141.589 189.128C141.973 189.288 142.453 189.368 143.029 189.368C143.317 189.368 143.621 189.344 143.941 189.296C144.261 189.232 144.557 189.16 144.829 189.08C145.101 189 145.341 188.92 145.549 188.84C145.773 188.744 145.933 188.656 146.029 188.576L146.221 190.472C145.917 190.664 145.445 190.848 144.805 191.024C144.165 191.2 143.453 191.296 142.669 191.312C142.589 191.424 142.517 191.528 142.453 191.624C142.389 191.72 142.325 191.816 142.261 191.912C142.581 192.088 142.821 192.28 142.981 192.488C143.141 192.696 143.221 192.984 143.221 193.352C143.221 194.072 142.973 194.616 142.477 194.984C141.981 195.352 141.301 195.536 140.437 195.536C139.973 195.536 139.581 195.496 139.261 195.416C138.957 195.352 138.701 195.272 138.493 195.176L139.045 193.856C139.173 193.92 139.341 193.976 139.549 194.024C139.757 194.088 140.013 194.12 140.317 194.12C140.589 194.12 140.813 194.072 140.989 193.976C141.165 193.896 141.253 193.744 141.253 193.52C141.253 193.328 141.189 193.184 141.061 193.088C140.933 192.992 140.717 192.872 140.413 192.728L140.269 192.656C140.381 192.448 140.533 192.2 140.725 191.912C140.917 191.64 141.093 191.392 141.253 191.168C140.149 190.912 139.309 190.376 138.733 189.56C138.157 188.744 137.869 187.736 137.869 186.536ZM156.454 191.144C156.374 190.968 156.294 190.776 156.214 190.568C156.134 190.344 156.07 190.112 156.022 189.872C155.67 190.192 155.198 190.512 154.606 190.832C154.014 191.152 153.286 191.312 152.422 191.312C151.718 191.312 151.11 191.2 150.598 190.976C150.102 190.752 149.694 190.44 149.374 190.04C149.054 189.64 148.814 189.168 148.654 188.624C148.51 188.08 148.438 187.48 148.438 186.824C148.438 185.752 148.614 184.704 148.966 183.68C149.334 182.656 149.878 181.744 150.598 180.944C151.318 180.144 152.222 179.496 153.31 179C154.398 178.504 155.67 178.256 157.126 178.256C157.558 178.256 158.062 178.304 158.638 178.4C159.214 178.496 159.71 178.656 160.126 178.88L158.278 186.416C158.198 186.784 158.126 187.136 158.062 187.472C158.014 187.808 157.99 188.16 157.99 188.528C157.99 188.896 158.022 189.272 158.086 189.656C158.15 190.024 158.262 190.424 158.422 190.856L156.454 191.144ZM152.878 189.416C153.55 189.416 154.126 189.272 154.606 188.984C155.086 188.696 155.502 188.36 155.854 187.976C155.87 187.704 155.894 187.424 155.926 187.136C155.974 186.832 156.03 186.528 156.094 186.224L157.534 180.272C157.454 180.24 157.318 180.216 157.126 180.2C156.95 180.184 156.79 180.176 156.646 180.176C155.734 180.176 154.91 180.352 154.174 180.704C153.438 181.056 152.806 181.528 152.278 182.12C151.766 182.696 151.366 183.376 151.078 184.16C150.806 184.928 150.67 185.736 150.67 186.584C150.67 186.92 150.702 187.264 150.766 187.616C150.83 187.952 150.942 188.256 151.102 188.528C151.278 188.784 151.502 189 151.774 189.176C152.062 189.336 152.43 189.416 152.878 189.416ZM157.006 174.032C157.246 174.16 157.462 174.264 157.654 174.344C157.846 174.424 158.038 174.464 158.23 174.464C158.566 174.464 158.846 174.344 159.07 174.104C159.294 173.848 159.494 173.584 159.67 173.312L160.798 174.008C160.478 174.68 160.094 175.2 159.646 175.568C159.214 175.92 158.638 176.096 157.918 176.096C157.598 176.096 157.31 176.04 157.054 175.928C156.814 175.816 156.582 175.696 156.358 175.568C156.118 175.44 155.902 175.336 155.71 175.256C155.518 175.176 155.326 175.136 155.134 175.136C154.798 175.136 154.518 175.264 154.294 175.52C154.07 175.76 153.87 176.016 153.694 176.288L152.566 175.592C152.886 174.92 153.262 174.408 153.694 174.056C154.142 173.688 154.726 173.504 155.446 173.504C155.766 173.504 156.046 173.56 156.286 173.672C156.542 173.784 156.782 173.904 157.006 174.032ZM165.741 191.312C164.429 191.312 163.397 190.928 162.645 190.16C161.909 189.376 161.541 188.304 161.541 186.944C161.541 186.016 161.669 185.04 161.925 184.016C162.197 182.992 162.621 182.048 163.197 181.184C163.773 180.32 164.517 179.608 165.429 179.048C166.341 178.488 167.445 178.208 168.741 178.208C170.053 178.208 171.077 178.6 171.813 179.384C172.565 180.152 172.941 181.216 172.941 182.576C172.941 183.504 172.805 184.48 172.533 185.504C172.277 186.528 171.861 187.472 171.285 188.336C170.709 189.2 169.965 189.912 169.053 190.472C168.141 191.032 167.037 191.312 165.741 191.312ZM166.125 189.416C166.845 189.416 167.485 189.208 168.045 188.792C168.621 188.376 169.101 187.848 169.485 187.208C169.885 186.552 170.189 185.832 170.397 185.048C170.605 184.264 170.709 183.504 170.709 182.768C170.709 181.952 170.533 181.304 170.181 180.824C169.829 180.344 169.221 180.104 168.357 180.104C167.637 180.104 166.989 180.312 166.413 180.728C165.853 181.144 165.373 181.68 164.973 182.336C164.589 182.976 164.293 183.688 164.085 184.472C163.877 185.256 163.773 186.016 163.773 186.752C163.773 187.568 163.949 188.216 164.301 188.696C164.653 189.176 165.261 189.416 166.125 189.416Z" fill="#AED559"/>
<path d="M185.107 191.336C184.307 191.336 183.619 191.2 183.043 190.928C182.483 190.656 182.019 190.288 181.651 189.824C181.299 189.344 181.035 188.792 180.859 188.168C180.699 187.528 180.619 186.848 180.619 186.128C180.619 185.04 180.811 184.016 181.195 183.056C181.595 182.08 182.139 181.232 182.827 180.512C183.515 179.792 184.331 179.224 185.275 178.808C186.219 178.392 187.251 178.184 188.371 178.184C188.659 178.184 188.923 178.2 189.163 178.232C189.419 178.264 189.675 178.312 189.931 178.376L191.227 172.952L194.947 172.376L191.779 185.552C191.555 186.464 191.491 187.384 191.587 188.312C191.683 189.224 191.867 190.04 192.139 190.76L188.947 191.216C188.851 191.024 188.763 190.84 188.683 190.664C188.603 190.488 188.523 190.288 188.443 190.064C187.995 190.432 187.491 190.736 186.931 190.976C186.387 191.216 185.779 191.336 185.107 191.336ZM189.235 181.232C189.139 181.216 189.051 181.2 188.971 181.184C188.907 181.168 188.835 181.16 188.755 181.16C188.691 181.144 188.603 181.136 188.491 181.136C188.379 181.136 188.235 181.136 188.059 181.136C187.499 181.136 186.979 181.272 186.499 181.544C186.019 181.8 185.603 182.152 185.251 182.6C184.915 183.048 184.651 183.56 184.459 184.136C184.267 184.696 184.171 185.272 184.171 185.864C184.171 186.632 184.299 187.24 184.555 187.688C184.827 188.12 185.307 188.336 185.995 188.336C186.363 188.336 186.699 188.264 187.003 188.12C187.307 187.976 187.627 187.736 187.963 187.4C187.995 187 188.043 186.584 188.107 186.152C188.187 185.704 188.267 185.296 188.347 184.928L189.235 181.232ZM199.767 191.336C198.919 191.336 198.183 191.208 197.559 190.952C196.935 190.696 196.415 190.336 195.999 189.872C195.599 189.408 195.295 188.864 195.087 188.24C194.879 187.6 194.775 186.896 194.775 186.128C194.775 185.168 194.927 184.208 195.231 183.248C195.551 182.288 196.015 181.424 196.623 180.656C197.231 179.888 197.975 179.264 198.855 178.784C199.735 178.288 200.743 178.04 201.879 178.04C202.711 178.04 203.439 178.168 204.063 178.424C204.703 178.68 205.223 179.04 205.623 179.504C206.039 179.968 206.351 180.52 206.559 181.16C206.767 181.784 206.871 182.48 206.871 183.248C206.871 184.208 206.719 185.168 206.415 186.128C206.111 187.088 205.663 187.952 205.071 188.72C204.479 189.488 203.735 190.12 202.839 190.616C201.959 191.096 200.935 191.336 199.767 191.336ZM201.543 181.064C201.015 181.064 200.551 181.216 200.151 181.52C199.751 181.824 199.415 182.208 199.143 182.672C198.871 183.136 198.663 183.648 198.519 184.208C198.391 184.752 198.327 185.272 198.327 185.768C198.327 186.584 198.455 187.216 198.711 187.664C198.967 188.096 199.431 188.312 200.103 188.312C200.631 188.312 201.095 188.16 201.495 187.856C201.895 187.552 202.231 187.168 202.503 186.704C202.775 186.24 202.975 185.736 203.103 185.192C203.247 184.632 203.319 184.104 203.319 183.608C203.319 182.792 203.191 182.168 202.935 181.736C202.679 181.288 202.215 181.064 201.543 181.064ZM218.09 188C218.266 188.016 218.442 188.032 218.618 188.048C218.81 188.048 219.066 188.048 219.386 188.048C220.426 188.048 221.362 187.888 222.194 187.568C223.042 187.248 223.754 186.792 224.33 186.2C224.922 185.592 225.378 184.856 225.698 183.992C226.018 183.112 226.178 182.128 226.178 181.04C226.178 180.48 226.106 179.976 225.962 179.528C225.818 179.064 225.578 178.672 225.242 178.352C224.922 178.016 224.498 177.76 223.97 177.584C223.458 177.408 222.834 177.32 222.098 177.32C221.618 177.32 221.13 177.344 220.634 177.392L218.09 188ZM230.018 180.848C230.018 182.464 229.754 183.912 229.226 185.192C228.698 186.472 227.938 187.56 226.946 188.456C225.97 189.336 224.778 190.016 223.37 190.496C221.962 190.976 220.37 191.216 218.594 191.216C217.922 191.216 217.146 191.176 216.266 191.096C215.386 191.016 214.538 190.888 213.722 190.712L217.586 174.656C218.498 174.48 219.37 174.36 220.202 174.296C221.05 174.216 221.81 174.176 222.482 174.176C223.666 174.176 224.722 174.336 225.65 174.656C226.594 174.976 227.386 175.432 228.026 176.024C228.682 176.616 229.178 177.32 229.514 178.136C229.85 178.952 230.018 179.856 230.018 180.848ZM234.38 191H230.828L233.828 178.376H237.404L234.38 191ZM236.108 176.84C235.612 176.84 235.164 176.696 234.764 176.408C234.364 176.104 234.164 175.648 234.164 175.04C234.164 174.704 234.228 174.392 234.356 174.104C234.5 173.8 234.684 173.544 234.908 173.336C235.132 173.112 235.388 172.936 235.676 172.808C235.98 172.68 236.3 172.616 236.636 172.616C237.132 172.616 237.58 172.768 237.98 173.072C238.38 173.36 238.58 173.808 238.58 174.416C238.58 174.752 238.508 175.072 238.364 175.376C238.236 175.664 238.06 175.92 237.836 176.144C237.612 176.352 237.348 176.52 237.044 176.648C236.756 176.776 236.444 176.84 236.108 176.84ZM249.457 185.552C249.233 186.464 249.169 187.384 249.265 188.312C249.361 189.224 249.545 190.04 249.817 190.76L246.625 191.216C246.529 191.024 246.441 190.84 246.361 190.664C246.281 190.488 246.201 190.288 246.121 190.064C245.673 190.432 245.177 190.736 244.633 190.976C244.089 191.216 243.481 191.336 242.809 191.336C242.009 191.336 241.321 191.2 240.745 190.928C240.185 190.64 239.721 190.264 239.353 189.8C239.001 189.32 238.745 188.768 238.585 188.144C238.425 187.504 238.345 186.824 238.345 186.104C238.345 185 238.537 183.96 238.921 182.984C239.321 182.008 239.865 181.16 240.553 180.44C241.257 179.704 242.081 179.128 243.025 178.712C243.969 178.296 244.993 178.088 246.097 178.088C246.241 178.088 246.489 178.096 246.841 178.112C247.209 178.128 247.625 178.168 248.089 178.232C248.553 178.28 249.041 178.368 249.553 178.496C250.065 178.624 250.553 178.8 251.017 179.024L249.457 185.552ZM246.961 181.136C246.753 181.104 246.561 181.08 246.385 181.064C246.225 181.048 246.025 181.04 245.785 181.04C245.241 181.04 244.729 181.176 244.249 181.448C243.785 181.72 243.377 182.08 243.025 182.528C242.673 182.96 242.393 183.464 242.185 184.04C241.993 184.616 241.897 185.216 241.897 185.84C241.897 186.608 242.025 187.216 242.281 187.664C242.537 188.112 243.009 188.336 243.697 188.336C244.065 188.336 244.393 188.264 244.681 188.12C244.985 187.976 245.305 187.736 245.641 187.4C245.673 187 245.721 186.584 245.785 186.152C245.865 185.704 245.945 185.296 246.025 184.928L246.961 181.136Z" fill="#7FAB38"/>
</svg>
